<svg width="554" height="121" viewBox="0 0 554 121" fill="none" xmlns="http://www.w3.org/2000/svg">
<path d="M184.478 44.9454L194.138 31.9166L206.512 41.7175L202.44 64.2831C202.219 65.4862 201.493 66.5426 200.42 67.2175L183.342 78.1335" fill="#2F698D"/>
<path d="M184.478 44.9454L194.138 31.9166L206.512 41.7175L202.44 64.2831C202.219 65.4862 201.493 66.5426 200.42 67.2175L183.342 78.1335" stroke="#4885AB" stroke-width="8.09151" stroke-miterlimit="10"/>
<path d="M139.053 22.761L167.526 13.899" stroke="#2F698D" stroke-width="10.7887" stroke-miterlimit="10"/>
<path d="M186.372 18.7118L186.53 77.6346C186.498 79.6007 185.014 81.2146 183.12 81.244L140.947 87.9638L140.663 86.027C140.726 86.027 140.821 85.9684 140.884 85.8803L182.458 22.6145L168.563 23.9953L155.247 23.0547L172.514 9.5271L186.372 18.7118Z" fill="#3679A3"/>
<path d="M182.458 22.6149L140.885 85.8806C140.821 85.9687 140.758 86.0274 140.664 86.0274C140.506 86.0567 140.443 85.9687 140.379 85.822L140.443 85.7633L134.098 24.5222L151.428 26.0775L155.247 23.0844L182.458 22.6149Z" fill="#2F698D"/>
<path d="M155.215 23.0546L151.427 26.077L143.378 23.2893L155.215 23.0546Z" fill="#2F698D"/>
<path d="M151.427 26.0776L134.097 24.5224L134.065 24.4343L151.427 26.0776Z" fill="#2F698D"/>
<path d="M151.427 26.077L134.066 24.4337L133.971 23.436L143.378 23.2893L151.427 26.077Z" fill="#2F698D"/>
<path d="M143.378 23.2893L133.971 23.436L133.592 19.8854L143.378 23.2893Z" fill="#2F698D"/>
<path d="M140.663 86.0273L140.947 87.964L110.075 92.8645C106.602 92.9819 98.1741 90.0768 94.3545 90.517L97.1324 88.2281L81.6331 29.6574L89.9351 20.2966L118.282 22.9669L119.166 23.7005L122.828 23.906C121.155 24.5222 120.145 26.5176 120.808 28.4249L140.411 85.8219L140.442 85.8513C140.442 85.9686 140.537 86.0567 140.663 86.0273Z" fill="#2F698D"/>
<path d="M134.096 24.5222L140.473 85.7925L140.41 85.8512L140.378 85.8219L120.775 28.3956C120.112 26.4882 121.122 24.4928 122.796 23.8766L134.096 24.5222Z" fill="#3679A3"/>
<path d="M134.066 24.434V24.522L122.765 23.9058C123.112 23.7004 123.522 23.6124 123.996 23.6124L125.006 23.583L134.066 24.434Z" fill="#2F698D"/>
<path d="M133.97 23.4363L134.065 24.434L125.037 23.5537L133.97 23.4363Z" fill="#2F698D"/>
<path d="M133.592 19.8858L133.97 23.4364L125.037 23.5538L118.25 22.9375L100.446 8.41223L133.592 19.8858Z" fill="#2F698D"/>
<path d="M118.251 23.3318L89.9036 20.6615L100.447 8.80654L118.251 23.3318Z" fill="#3679A3"/>
<path d="M100.446 8.41223L89.903 20.2672L82.7057 19.5923L100.446 8.41223Z" fill="#2F698D"/>
<path d="M81.6329 29.6282L97.1322 88.1989L94.3543 90.4877C94.1649 90.5171 93.9755 90.5758 93.8493 90.5758L73.7727 94.4492L73.5202 93.1874L67.1437 31.8877L81.6329 29.6282Z" fill="#3679A3"/>
<path d="M89.9033 20.267L81.6328 29.6277L67.1436 31.8872L66.8911 29.569L82.7061 19.592L89.9033 20.267Z" fill="#3679A3"/>
<path d="M82.7067 19.5923L66.8917 29.5693L65.6921 18.0077L82.7067 19.5923Z" fill="#2F698D"/>
<path d="M73.5203 93.2163L73.7729 94.4781L19.8251 104.895C19.1938 105.042 17.8995 105.159 16.3212 105.159L49.4033 31.5057L67.1438 31.8872L73.5203 93.2163Z" fill="#2F698D"/>
<path d="M66.891 29.5687L67.1436 31.8869L49.403 31.5054L26.7695 14.3391L66.891 29.5687Z" fill="#3679A3"/>
<path d="M65.6915 18.0071L66.891 29.5687L26.7695 14.3391L65.6915 18.0071Z" fill="#2F698D"/>
<path d="M49.4031 31.5054L16.321 105.188C12.8487 105.247 8.23991 104.865 8.08208 103.369L6.31433 40.1912L26.7697 14.3391L49.4031 31.5054Z" fill="#3679A3"/>
<path d="M133.592 19.8861L132.33 7.59094" stroke="#4885AB" stroke-width="10.7887" stroke-miterlimit="10"/>
<path d="M133.592 19.8857L133.971 23.4364" stroke="#4885AB" stroke-width="10.7887" stroke-miterlimit="10"/>
<path d="M133.971 23.4362L134.066 24.4339" stroke="#4885AB" stroke-width="10.7887" stroke-miterlimit="10"/>
<path d="M134.065 24.4343L134.097 24.5236" stroke="#4885AB" stroke-width="10.7887" stroke-miterlimit="10"/>
<path d="M134.097 24.5219L151.427 26.0771L155.247 23.084L172.514 9.5564L186.372 18.7117L186.529 77.6346C186.498 79.6007 185.014 81.2146 183.12 81.2439L140.947 87.9637L110.074 92.8642C106.602 92.9815 98.1737 90.0765 94.3541 90.5166C94.1647 90.546 93.9753 90.6047 93.8491 90.6047L73.7725 94.4781L19.8247 104.895C19.1934 105.042 17.8991 105.159 16.3208 105.159C12.8484 105.218 8.23967 104.837 8.08183 103.34L6.31409 40.1916L26.7694 14.3395L49.4029 31.5058L67.1435 31.8872L81.6327 29.6277L89.9348 20.267L100.478 8.41199L118.282 22.9666L119.166 23.7002L122.827 23.9056L134.097 24.5219Z" stroke="#4885AB" stroke-width="10.7887" stroke-miterlimit="10"/>
<path d="M134.097 24.5217L140.474 85.7921" stroke="#4885AB" stroke-width="10.7887" stroke-miterlimit="10"/>
<path d="M73.5198 93.2165L67.1433 31.8874L66.8908 29.5692L65.6913 18.0077L64.5864 7.32642" stroke="#4885AB" stroke-width="10.7887" stroke-miterlimit="10"/>
<path d="M26.0751 60.4391L15.0582 61.026L14.7426 41.1894L27.2115 37.1106L26.0751 60.4391Z" stroke="#DBB75C" stroke-width="5.39434" stroke-miterlimit="10"/>
<path d="M167.968 18.3306L177.911 21.0302L177.88 38.9301L167.399 34.8806L167.968 18.3306Z" stroke="#DBB75C" stroke-width="5.39434" stroke-miterlimit="10"/>
<path d="M196.82 54.1308L201.176 50.2574L202.723 41.3955L196.82 43.4496V54.1308Z" stroke="#DBB75C" stroke-width="2.02288" stroke-miterlimit="10"/>
<path d="M100.258 30.1265L112.032 32.6207L114.936 50.6086L104.393 53.2789L100.258 30.1265Z" stroke="#DBB75C" stroke-width="5.39434" stroke-miterlimit="10"/>
<path d="M245.083 13.9941H245.146C245.272 13.9941 245.778 14.0244 246.664 14.0547C250.173 14.3272 253.557 14.5997 256.75 14.9025L260.703 18.1122C262.157 25.8637 262.821 30.1634 262.695 30.9507C261.556 32.1921 260.386 33.4639 259.248 34.7356C257.667 36.401 256.339 37.3699 255.296 37.6122C257.477 41.2154 261.556 46.5143 267.532 53.5392L262.252 54.9623C260.165 53.1456 257.667 50.6626 254.758 47.4833C252.418 44.849 250.078 42.1541 247.707 39.4895L243.122 40.4584C242.901 46.0904 242.901 50.1176 243.122 52.54L234.585 53.3878C234.806 50.269 234.964 45.5151 235.059 39.1564L235.122 34.342L234.68 14.6906L245.019 14.1455L245.083 13.9941ZM253.399 19.0205L242.268 19.6867C242.237 21.0795 242.427 23.8047 242.869 27.7713C243.28 31.1929 243.343 33.8575 243.091 35.7651C246.158 35.1292 248.814 34.1603 251.059 32.8583L254.79 29.7395L253.399 19.0205Z" fill="#B16A72"/>
<path d="M299.247 44.3897C298.583 45.9037 297.919 47.2057 297.255 48.3261C295.611 51.0512 294.03 52.6258 292.512 53.1102C291.31 53.4736 288.907 53.6553 285.271 53.6553C281.066 53.6553 278.283 53.3222 276.923 52.656C275.848 52.111 274.678 50.2034 273.414 46.8727C272.307 43.8447 271.738 41.7252 271.738 40.4837C271.769 38.1219 271.611 34.5489 271.264 29.7345C270.916 25.0109 270.758 21.4076 270.821 18.9247L278.694 18.3797C278.536 20.8021 278.536 25.4954 278.631 32.5202C278.694 39.6056 278.852 43.6328 279.105 44.6017C279.39 45.934 279.769 46.8727 280.18 47.4177C281.066 48.5683 282.615 49.1739 284.828 49.2647C285.84 49.295 286.852 49.1739 287.895 48.9014C289.097 48.5986 289.761 48.2352 289.951 47.8416C291.152 45.4193 291.911 42.7849 292.259 39.9084C292.512 38.1825 292.67 35.6087 292.733 32.1266C292.733 30.8548 292.86 28.5839 293.113 25.344C293.334 22.6491 293.397 20.4084 293.334 18.5614L302.029 18.0466L299.247 44.3897Z" fill="#B16A72"/>
<path d="M331.816 50.9542C330.962 51.7111 329.349 52.347 326.946 52.8618C325.017 53.2554 323.183 53.4674 321.508 53.4674C319.769 53.4674 316.164 53.4068 310.662 53.2554C310.409 48.5621 310.093 41.7189 309.682 32.6957C309.619 29.5769 309.429 24.823 309.144 18.4038L322.962 17.6468C323.5 17.6165 325.207 17.889 328.021 18.4643C331.436 19.1608 333.586 19.8875 334.503 20.6142C335.231 21.6437 335.958 22.7035 336.653 23.733C337.444 25.2167 337.823 27.0031 337.792 29.153C337.602 40.2958 335.61 47.5326 331.816 50.9542ZM329.76 25.5497L324.796 22.8851L317.84 23.1274L317.618 28.0024C317.524 30.5761 317.524 37.7221 317.618 49.4402L321.002 49.5008L327.895 47.2298C329.413 43.1724 330.203 37.1467 330.329 29.1833C330.171 27.9721 329.982 26.7609 329.76 25.5497Z" fill="#B16A72"/>
<path d="M367.671 51.1978C366.817 51.8337 364.414 52.6513 360.462 53.6202C359.007 53.5899 357.743 53.5294 356.636 53.4082C354.011 53.1963 352.43 52.8935 351.893 52.4393C349.363 50.35 347.624 48.2607 346.676 46.1412C345.98 44.5969 345.284 41.8415 344.589 37.8446C344.146 31.7585 343.988 28.2158 344.115 27.156C344.873 24.9153 345.696 23.1894 346.549 21.9782C347.782 20.3129 349.363 19.1622 351.355 18.5566C354.043 17.7088 356.889 17.2849 359.861 17.2849C364.604 17.2849 368.177 18.1025 370.58 19.7073C372.129 20.7065 373.205 22.0993 373.805 23.8253C374.374 25.3695 374.659 27.4891 374.659 30.2142C374.659 31.6676 374.564 33.8175 374.406 36.6637C374.311 38.2685 373.552 40.7514 372.129 44.1125C370.549 47.8974 369.062 50.2289 367.671 51.1978ZM364.857 23.7647C364.225 23.4619 361.442 23.1591 356.541 22.7958C355.719 22.9774 354.739 23.5527 353.6 24.5822C352.462 25.6117 351.893 26.4596 351.861 27.1863C351.798 29.427 351.703 31.6676 351.64 33.878C351.577 37.0574 351.608 39.3283 351.798 40.6606C352.114 42.871 353.189 44.9906 354.992 46.989C355.498 47.5643 357.205 47.8368 360.114 47.8368C361.758 47.8368 362.991 47.6854 363.845 47.3826C364.414 47.1404 365.142 45.2328 365.995 41.5993C366.881 37.7235 367.355 34.1808 367.355 31.0015C367.355 26.9138 366.501 24.4914 364.857 23.7647Z" fill="#B16A72"/>
<path d="M382.912 53.982C382.975 53.5884 383.07 50.621 383.133 45.1404C383.196 41.628 383.133 37.1467 382.912 31.7569C382.627 23.5815 382.469 19.1304 382.469 18.3734L392.113 17.677C391.828 19.3424 391.481 22.1584 391.101 26.125C390.659 32.5745 390.279 39.9626 389.931 48.35L403.37 49.1676L402.674 52.6497L382.912 53.982Z" fill="#B16A72"/>
<path d="M428.76 37.9401L415.986 39.0907L415.669 53.0192L409.314 53.7157C409.219 48.7196 408.808 40.6652 408.112 29.5224L407.891 20.8322L409.124 18.864L430.657 18.2584L428.918 21.9222L417.693 23.4362L416.207 24.5263C416.144 25.9797 416.049 27.4028 415.954 28.8562C415.859 31.0666 415.859 32.8531 415.954 34.246L429.487 34.3065L428.76 37.9401Z" fill="#B16A72"/>
<path d="M251.406 85.0902H251.375C251.185 85.4838 250.995 85.8775 250.774 86.3014C250.584 86.7253 250.3 86.9978 249.952 87.0887C247.675 87.8154 244.766 88.1484 241.256 88.1484C238.822 88.1484 236.355 87.997 233.857 87.664L233.478 84.7874C234.49 84.9388 235.597 85.0296 236.83 85.0296C240.687 85.0296 243.913 84.3029 246.505 82.8192C246.727 82.6981 246.822 82.2439 246.822 81.4869C246.822 80.4574 246.632 79.004 246.252 77.157C245.936 76.8542 243.849 75.9155 239.992 74.341C236.387 72.8573 234.363 71.7975 233.952 71.1313C233.478 70.3744 233.257 68.2245 233.257 64.6818C233.257 62.5622 233.415 61.3208 233.699 60.9574C234.269 60.261 234.711 59.6554 235.027 59.1407C235.47 58.6259 237.146 58.3837 240.118 58.3837C243.28 58.3837 247.074 58.5956 251.533 59.0498L250.679 62.1383C250.078 62.1686 249.288 62.1383 248.308 62.108C247.011 62.0172 246.221 61.9869 245.905 61.9869C242.806 61.9264 240.719 62.1686 239.676 62.7136L238.948 68.0428C239.201 68.4062 240.276 68.9209 242.11 69.6779C243.28 70.1321 244.45 70.5863 245.62 71.0405C249.699 72.615 252.039 73.9776 252.703 75.1282C252.924 75.5219 253.019 76.1275 253.019 76.945C253.019 79.3977 252.45 82.1228 251.312 85.1205L251.406 85.0902Z" fill="#2F698D"/>
<path d="M274.172 64.5004L267.753 65.5905L267.026 66.5594C266.931 71.3133 266.71 78.3684 266.393 87.7247L261.872 88.6028C261.935 87.7247 261.967 86.7861 261.967 85.8171C261.967 84.4546 261.872 82.2442 261.714 79.2162C261.556 76.3397 261.492 74.1898 261.492 72.7364C261.524 71.4647 261.334 69.3149 260.955 66.3475L259.848 65.7419L254.188 64.8335L254.662 62.1992L260.006 62.0175C262.599 61.9267 267.152 61.8056 273.634 61.6542L274.172 64.5004Z" fill="#2F698D"/>
<path d="M292.986 76.5517L283.721 77.3087C283.753 78.5199 283.785 79.5797 283.848 80.5183C284.006 82.7287 284.259 84.0005 284.575 84.3336C285.018 84.7878 288.275 84.9391 294.409 84.7877L293.935 87.3615C288.148 87.9065 283.943 88.1791 281.35 88.1791C279.959 88.1791 279.168 88.0882 279.042 87.9066C278.599 87.2404 278.283 84.0913 278.061 78.3988L277.809 71.8886C277.556 65.9841 277.745 62.7745 278.346 62.2295C278.947 61.6844 284.322 61.3513 294.44 61.2605L293.745 64.1068C292.101 64.1976 290.646 64.2885 289.413 64.4096C286.472 64.6821 284.796 65.0455 284.385 65.4694C283.943 65.9841 283.721 68.467 283.753 72.9787L284.354 73.7054L293.302 74.0082L292.986 76.5517Z" fill="#2F698D"/>
<path d="M305.254 87.8456L300.922 88.1787L299.752 68.4366C299.689 67.0437 299.594 64.8939 299.436 61.9871L306.424 61.3815C306.171 65.8023 305.887 70.223 305.665 74.6438C305.349 79.7913 305.223 84.1818 305.254 87.8456Z" fill="#2F698D"/>
<path d="M333.807 87.1492L329.506 88.1787C326.503 79.6399 323.246 72.8876 319.673 67.952L318.313 68.5576C317.934 73.4629 317.712 79.9124 317.681 87.9062L313.57 88.3301L312.527 67.407L313.444 62.0475L321.096 61.6236C323.625 65.6508 325.396 68.497 326.345 70.1624C328.21 73.4629 329.538 76.3091 330.36 78.6709L329.949 63.9551L330.36 61.4722L336.241 61.3208C335.799 64.8029 335.451 68.0428 335.135 71.0405C334.313 78.1865 333.87 83.5459 333.807 87.1492Z" fill="#2F698D"/>
<path d="M356.984 76.5517L347.72 77.3087C347.751 78.5199 347.783 79.5797 347.846 80.5183C348.004 82.7287 348.257 84.0005 348.574 84.3336C349.016 84.7878 352.273 84.9391 358.407 84.7877L357.933 87.3615C352.147 87.9065 347.941 88.1791 345.348 88.1791C343.957 88.1791 343.167 88.0882 343.04 87.9066C342.597 87.2404 342.281 84.0913 342.06 78.3988L341.807 71.8886C341.554 65.9841 341.744 62.7745 342.345 62.2295C342.945 61.6844 348.321 61.3513 358.407 61.2605L357.712 64.1068C356.067 64.1976 354.613 64.2885 353.38 64.4096C350.439 64.6821 348.763 65.0455 348.352 65.4694C347.878 65.9841 347.688 68.467 347.688 72.9787L348.289 73.7054L357.237 74.0082L356.984 76.5517Z" fill="#2F698D"/>
<path d="M381.806 89.1472C380.288 87.8149 377.031 84.3328 371.972 78.7008L369.032 79.3064C368.905 83.1216 368.905 85.8467 369.032 87.4516L363.087 88.0571C363.245 85.9679 363.372 82.728 363.467 78.3677L363.498 75.0976L363.182 61.7746L370.296 61.3507C372.573 61.5324 375.229 61.7443 378.17 61.9866L380.889 64.1667C381.901 69.5564 382.343 72.4632 382.217 72.9174C381.395 73.8258 380.604 74.7039 379.751 75.582C378.739 76.6418 377.948 77.2474 377.316 77.3988C378.77 79.7909 381.553 83.3638 385.6 88.1177L381.806 89.1472ZM375.83 64.8934L368.462 65.3173C368.684 68.648 368.873 72.1907 369.063 76.0059C370.992 75.6123 372.731 74.9764 374.28 74.0681L376.715 71.9788L375.83 64.8934Z" fill="#2F698D"/>
<path d="M393.378 65.2877L392.745 69.9507C392.935 70.2232 394.927 71.1013 398.69 72.585C402.389 74.0082 404.508 75.2496 405.077 76.3094C405.267 76.6727 405.362 77.2178 405.362 77.9748C405.362 80.1852 404.856 82.6378 403.875 85.3629C403.907 85.3629 403.464 85.9685 402.579 87.21C400.397 87.8459 397.678 88.1487 394.453 88.1487C392.208 88.1487 390.058 87.9973 387.939 87.7247L387.56 84.9693C388.508 85.1207 389.552 85.2116 390.722 85.2116C394.168 85.2116 397.046 84.5454 399.322 83.2131C399.543 83.1223 399.638 82.7589 399.638 82.123C399.638 81.2147 399.449 79.9126 399.069 78.2473C398.785 78.005 396.951 77.1572 393.473 75.7644C390.184 74.4018 388.35 73.4328 388.002 72.8273C387.56 72.1611 387.338 70.1929 387.338 66.9833C387.338 65.0757 387.465 63.9554 387.749 63.592L389.046 62.0175C389.425 61.5027 391.038 61.2605 393.852 61.2605C396.571 61.2605 399.955 61.4725 404.002 61.8661L403.18 64.8032C403.085 64.8032 402.484 64.7729 401.409 64.7426C400.081 64.6821 399.006 64.6518 398.184 64.6518C395.812 64.6518 394.2 64.8638 393.378 65.2877Z" fill="#2F698D"/>
<path d="M429.012 89.0874C427.779 86.3017 426.736 84.2124 425.85 82.8498C424.491 80.7 422.625 78.4593 420.254 76.0975L415.89 76.2186C415.953 76.6122 415.953 78.3684 415.89 81.4569C415.827 84.6363 415.7 86.7861 415.606 87.8459L410.673 88.0881L409.408 61.8964L416.175 61.6239L415.89 73.4935L421.803 72.1914C422.435 70.5563 423.637 67.9826 425.376 64.4096C426.008 63.3498 426.356 62.5626 426.419 62.0175L431.732 61.5936C431.447 62.4717 431.194 63.2893 430.973 64.016C430.34 65.7419 429.803 66.9228 429.36 67.4981C428.222 68.9818 426.704 71.1619 424.807 74.0385L428.886 77.2178C429.74 79.5493 430.941 82.9104 432.459 87.2706L429.012 89.0874Z" fill="#2F698D"/>
<path d="M452.981 86.362C452.317 86.8464 450.515 87.452 447.574 88.1787C446.499 88.1484 445.55 88.0879 444.697 88.0273C442.736 87.8759 441.535 87.6337 441.124 87.3006C439.227 85.7261 437.93 84.1516 437.203 82.577C436.697 81.4264 436.159 79.3371 435.622 76.3395C435.306 71.7673 435.179 69.1027 435.242 68.3457C435.812 66.65 436.412 65.348 437.076 64.4699C437.993 63.1982 439.195 62.3504 440.681 61.8962C442.705 61.2603 444.823 60.9575 447.068 60.9575C450.641 60.9575 453.297 61.5631 455.131 62.7743C456.301 63.5313 457.092 64.5608 457.566 65.8628C458.009 67.0134 458.198 68.6182 458.198 70.6469C458.198 71.737 458.135 73.3418 458.009 75.4916C457.945 76.7028 457.376 78.5499 456.301 81.0933C455.163 83.879 454.056 85.6353 452.981 86.362ZM450.894 65.7719C450.42 65.5297 448.333 65.3178 444.665 65.0452C444.033 65.1664 443.305 65.6205 442.452 66.3775C441.598 67.1345 441.155 67.8007 441.124 68.3154C441.06 70.0111 441.029 71.6764 440.966 73.3418C440.902 75.7339 440.966 77.4295 441.092 78.4287C441.345 80.0941 442.136 81.6686 443.495 83.1826C443.875 83.6065 445.139 83.8185 447.321 83.8185C448.554 83.8185 449.503 83.6974 450.104 83.4854C450.546 83.3037 451.084 81.8503 451.716 79.1555C452.38 76.2486 452.728 73.584 452.728 71.192C452.76 68.1337 452.127 66.317 450.894 65.7719Z" fill="#2F698D"/>
<path d="M463.763 88.4516C463.826 88.1488 463.858 85.9384 463.921 81.8204C463.984 79.1861 463.921 75.825 463.763 71.7978C463.542 65.6511 463.447 62.3203 463.447 61.7753L470.688 61.2605C470.466 62.5322 470.213 64.6215 469.929 67.5889C469.613 72.4034 469.296 77.9749 469.044 84.273L479.13 84.8786L478.593 87.4827L463.763 88.4516Z" fill="#2F698D"/>
<path d="M486.466 88.058L482.102 87.9672C482.545 85.2118 482.988 82.7289 483.399 80.5185C484.411 75.2196 485.201 71.7072 485.865 69.9207C486.371 68.4976 486.877 67.1047 487.351 65.7119C487.699 64.7732 488.395 63.3804 489.406 61.503L498.671 60.9277C501.201 68.9518 502.971 75.5224 503.92 80.6093L503.857 87.9975L498.956 87.4827L498.292 82.5472L491.209 83.1831L488.205 82.4564L486.466 88.058ZM497.944 79.2467C498.039 78.732 498.07 78.2778 498.07 77.9145C498.133 77.0969 497.722 74.8562 496.837 71.2227C495.952 67.5892 495.351 65.5605 495.035 65.1366L491.715 65.4091C490.165 70.0115 489.375 73.1909 489.375 74.9471L488.964 79.7615L497.944 79.2467Z" fill="#2F698D"/>
<path d="M529.184 87.1492L524.884 88.1787C521.88 79.6399 518.623 72.8876 515.05 67.952L513.691 68.5576C513.311 73.4629 513.09 79.9124 513.058 87.9062L508.948 88.3301L507.904 67.407L508.821 62.0475L516.473 61.6236C519.003 65.6508 520.773 68.497 521.722 70.1624C523.587 73.4629 524.915 76.3091 525.738 78.6709L525.327 63.9551L525.738 61.4722L531.619 61.3208C531.176 64.8029 530.828 68.0428 530.512 71.0405C529.69 78.1865 529.279 83.5459 529.184 87.1492Z" fill="#2F698D"/>
<path d="M449.913 44.4794C449.913 44.3885 449.913 44.3583 449.882 44.3583C449.85 44.3583 449.755 44.4491 449.755 44.4491C448.332 46.2053 446.277 46.3567 445.044 46.2659C441.724 46.0539 440.143 42.9654 440.333 40.3614C440.681 35.4561 444.348 31.6106 451.336 32.0345C451.336 32.0345 452.538 32.0951 452.538 32.2768C452.538 32.2768 452.601 32.8218 452.569 33.4879C452.569 33.6393 452.506 33.9724 452.506 33.9724L452.886 34.0027C453.328 34.033 454.056 34.0935 454.372 34.3055L454.087 38.4235C453.866 41.4514 453.676 45.2061 453.613 46.1145C452.981 55.0469 446.214 56.137 443.526 55.9856C443.305 55.9856 442.356 54.1082 442.483 52.5337L443.147 52.564C444.918 52.6851 449.344 52.2612 449.913 44.4794ZM449.755 35.3047C446.657 35.123 444.759 37.1518 444.57 39.6952C444.475 40.9064 445.202 42.2387 446.815 42.3598C448.87 42.4809 449.945 40.6036 449.977 40.1797C450.008 39.6952 450.293 36.2131 450.451 35.4561C450.514 35.3653 449.755 35.3047 449.755 35.3047Z" fill="#DBB75C"/>
<path d="M456.459 40.7796C456.553 36.813 459.842 32.7252 465.628 32.8464C465.628 32.8464 467.304 32.9372 467.494 33.1492C467.525 33.1794 467.557 33.3914 467.557 33.6033C467.557 34.0273 467.462 34.5723 467.431 34.7842C467.778 34.8145 471.383 35.9954 471.257 40.5979C471.162 44.4737 468.442 48.1375 463.605 48.0467C458.925 47.9255 456.364 44.837 456.459 40.7796ZM460.79 31.0599C459.81 31.0296 459.051 30.3937 459.083 29.3037C459.115 28.4558 459.968 27.6686 460.949 27.6988C461.929 27.7291 462.719 28.4861 462.688 29.3945C462.656 30.2726 461.771 31.0599 460.79 31.0599ZM464.648 37.6911H464.364C464.332 37.6305 464.3 37.4488 464.3 37.2672C464.3 36.9038 464.395 36.4496 464.427 36.3285C462.751 36.2982 460.474 37.6608 460.411 40.8099C460.411 41.1429 460.316 44.7159 463.668 44.7765C465.312 44.8067 467.146 43.7167 467.209 40.8099C467.304 37.9939 465.407 37.6911 464.648 37.6911ZM467.336 31.2113C466.356 31.181 465.597 30.5451 465.628 29.4551C465.66 28.6072 466.514 27.82 467.494 27.82C468.474 27.8502 469.233 28.6072 469.201 29.5156C469.17 30.424 468.316 31.2113 467.336 31.2113Z" fill="#DBB75C"/>
<path d="M478.625 31.7257C480.047 31.7862 481.249 31.8468 481.249 31.9074C481.186 33.5122 480.522 34.8142 480.142 34.8142L478.751 34.7536H478.498C478.372 37.2366 478.245 40.0223 478.15 42.263C478.055 44.5339 478.055 46.2901 478.087 47.0168C478.213 48.5005 478.909 49.4392 479.415 49.9237C479.383 50.3173 477.233 51.6193 475.494 51.5588C475.368 51.5588 474.293 50.4384 474.135 48.3491C474.071 47.8041 474.134 46.4415 474.198 44.7459C474.324 41.1123 474.577 36.0254 474.672 34.6931C473.597 34.6628 472.712 34.6628 472.712 34.6628C472.617 34.572 472.554 34.0572 472.585 33.4819C472.617 32.7249 472.743 31.8165 472.965 31.6348C472.965 31.6348 473.723 31.6348 474.83 31.6348C474.893 29.1216 474.735 28.7886 474.735 28.4252C474.767 27.9407 476.854 27.2746 478.119 27.3352C478.435 27.3352 478.972 27.426 478.972 27.4865C478.909 27.9105 478.783 29.5456 478.625 31.7257Z" fill="#DBB75C"/>
<path d="M481.343 41.51C481.533 37.3012 484.537 33.5466 490.165 33.7888C491.809 33.8494 494.529 34.6366 494.37 37.5132C494.244 40.2686 491.493 43.1149 486.94 44.3563C486.94 44.538 487.635 45.2647 489.438 45.3252C490.924 45.3858 492.537 45.2041 493.643 44.6288C493.643 44.6288 493.675 44.5985 493.706 44.5985C493.77 44.5985 493.801 45.0225 493.77 45.2041C493.738 45.9914 493.453 47.3237 492.758 48.0807C492.758 48.0807 491.525 48.7771 488.173 48.6257C483.335 48.444 481.153 45.295 481.343 41.51ZM489.754 36.6351C487.857 36.5442 486.054 38.573 485.928 41.1164C485.896 41.4798 485.896 41.5706 486.054 41.5706C487.509 41.6009 490.671 39.7841 490.797 37.604C490.797 36.9379 490.26 36.6654 489.754 36.6351Z" fill="#DBB75C"/>
<path d="M496.078 50.6323C496.331 49.8753 496.552 47.0896 496.742 43.7589C496.995 39.8529 497.216 35.1293 497.406 31.7683C497.564 29.3762 497.691 27.6805 497.849 27.5594C498.355 27.1355 499.872 26.5602 501.105 26.6207C501.422 26.6207 501.959 26.7419 501.959 26.8024C501.864 27.1658 501.2 33.4336 501.2 34.6448L501.769 34.6751C503.856 34.7962 510.497 35.5835 510.085 41.9724C509.833 46.3327 505.184 48.8156 500.347 49.2698C500.347 49.2698 500.315 50.0267 500.252 50.0873C499.524 50.6929 497.532 50.814 496.584 50.7837C496.363 50.7534 496.078 50.7232 496.078 50.6323ZM506.007 41.5182C506.165 39.0656 504.141 38.1572 502.592 38.0664C501.959 38.0361 500.979 38.0664 500.979 38.0664L500.853 40.3979C500.694 42.8808 500.6 45.0004 500.663 45.6665C501.169 45.7271 505.754 45.9087 506.007 41.5182Z" fill="#DBB75C"/>
<path d="M512.236 42.124C512.52 38.1574 515.998 34.221 521.785 34.5844C521.785 34.5844 523.461 34.7661 523.65 34.978C523.682 35.0083 523.714 35.2203 523.682 35.4322C523.65 35.8561 523.556 36.4012 523.492 36.5828C523.84 36.6434 527.382 37.9757 527.034 42.5479C526.749 46.4236 523.872 49.9663 519.034 49.6635C514.354 49.3608 511.951 46.1511 512.236 42.124ZM520.583 39.3383L520.299 39.308C520.267 39.2777 520.267 39.096 520.267 38.9144C520.299 38.551 520.394 38.0968 520.425 37.9757C518.749 37.8546 516.409 39.1566 516.188 42.2754C516.157 42.6084 515.904 46.1814 519.255 46.3934C520.899 46.4842 522.797 45.485 522.986 42.5782C523.208 39.7622 521.311 39.3988 520.583 39.3383Z" fill="#DBB75C"/>
<path d="M538.86 40.3071C538.765 40.2768 538.417 40.2162 538.417 40.2162C534.876 39.9437 533.674 42.7597 533.674 42.9716L533.421 45.8179C533.263 47.6649 533.073 49.6936 532.979 49.7845C532.093 50.4809 529.975 50.4506 529.089 50.3598C528.963 50.3598 528.805 50.3295 528.805 50.2387C529.121 49.1789 529.311 47.241 529.5 45.1517C529.722 42.5477 529.911 39.6712 530.07 37.7939C530.164 36.6433 530.259 35.856 530.386 35.7652C530.923 35.3413 532.378 35.0082 533.643 35.099C533.959 35.1293 534.37 35.2201 534.37 35.311C534.307 35.5835 534.148 36.8249 534.054 37.6728C534.054 37.7333 533.99 38.4297 534.054 38.4297C534.085 38.4297 534.117 38.4297 534.18 38.3692C534.18 38.3692 536.362 35.9166 539.587 36.1588C539.587 36.1588 539.84 36.613 539.777 37.4002C539.555 39.5804 538.86 40.3071 538.86 40.3071Z" fill="#DBB75C"/>
<path d="M547.713 51.2079C547.744 51.1171 547.744 51.0868 547.713 51.0868C547.681 51.0868 547.586 51.1777 547.586 51.1777C545.974 52.7825 543.887 52.7219 542.685 52.51C539.428 51.9649 538.195 48.725 538.701 46.1513C539.618 41.3066 543.729 37.885 550.622 39.0357C550.622 39.0357 551.823 39.2476 551.792 39.399C551.792 39.399 551.792 39.9743 551.665 40.6102C551.634 40.7616 551.539 41.0947 551.539 41.0947L551.918 41.1552C552.361 41.246 553.088 41.3974 553.341 41.6094L552.551 45.6668C551.982 48.6342 551.318 52.3586 551.159 53.2669C549.452 62.0782 542.622 62.4719 539.966 62.0177C539.776 61.9874 539.049 60.0495 539.334 58.475L539.998 58.5961C541.768 58.8383 546.227 58.8686 547.713 51.2079ZM548.661 42.0636C545.594 41.5488 543.476 43.3656 543.002 45.9091C542.78 47.09 543.318 48.5131 544.93 48.7856C546.954 49.1187 548.25 47.3625 548.345 46.9386C548.44 46.4541 549.136 43.0325 549.389 42.2755C549.389 42.1847 548.661 42.0636 548.661 42.0636Z" fill="#DBB75C"/>
</svg>
