<svg width="467" height="272" viewBox="0 0 467 272" fill="none" xmlns="http://www.w3.org/2000/svg">
<path d="M168.188 41.2129L233.502 3.5037L298.817 41.2129V116.631L233.502 154.341L168.188 116.631V41.2129Z" stroke="#FAFAFA" stroke-width="5.20155"/>
<path d="M181.983 93.2708L220.499 71.034V26.6585L229.035 21.7313V76.0593L181.983 103.226V93.2708Z" fill="#FAFAFA"/>
<path d="M186.451 110.963L233.502 83.7971L280.554 110.963L272.299 115.727L233.677 93.4293L194.88 115.83L186.451 110.963Z" fill="#FAFAFA"/>
<path d="M237.97 76.0588V21.7308L246.405 26.5992V71.0815L285.021 93.375V103.225L237.97 76.0588Z" fill="#FAFAFA"/>
<g clip-path="url(#clip0_40_7)">
<path d="M9.2604 219.239C9.2633 222.259 10.4653 225.154 12.6025 227.29C14.7397 229.425 17.6376 230.626 20.6601 230.629H43.3446C48.5763 230.629 53.5938 232.706 57.2933 236.402C60.9927 240.098 63.071 245.112 63.071 250.339C63.071 255.567 60.9927 260.58 57.2933 264.276C53.5938 267.973 48.5763 270.049 43.3446 270.049H0.930908V261.727H43.3446C46.324 261.661 49.1594 260.433 51.2434 258.304C53.3275 256.176 54.4945 253.317 54.4945 250.339C54.4945 247.361 53.3275 244.502 51.2434 242.374C49.1594 240.245 46.324 239.017 43.3446 238.952H20.6601C15.4276 238.952 10.4094 236.875 6.70945 233.178C3.00951 229.481 0.930908 224.467 0.930908 219.239C0.930908 214.011 3.00951 208.997 6.70945 205.3C10.4094 201.603 15.4276 199.526 20.6601 199.526H63.6374V207.827H20.6601C19.1616 207.828 17.6781 208.124 16.2943 208.699C14.9104 209.273 13.6533 210.114 12.5948 211.174C11.5362 212.233 10.6969 213.491 10.1248 214.875C9.55269 216.259 9.25896 217.742 9.2604 219.239V219.239Z" fill="#FAFAFA"/>
<path d="M87.081 231.674V271.5H78.8143V223.222L87.081 231.674Z" fill="#FAFAFA"/>
<path d="M142.797 200.311V271.499H134.41V220.866L111.062 244.561L78.8143 211.839V199.792L111.062 232.518L142.797 200.311Z" fill="#FAFAFA"/>
<path d="M226.925 235.771C226.92 242.23 225.163 248.566 221.843 254.108C218.523 259.649 213.762 264.189 208.067 267.244C202.373 270.3 195.956 271.757 189.499 271.462C183.041 271.167 176.785 269.129 171.393 265.567L169.985 264.634L176.286 258.339L177.214 258.89C182.386 261.971 188.439 263.241 194.414 262.497C200.39 261.754 205.946 259.04 210.204 254.785C214.462 250.531 217.178 244.979 217.922 239.009C218.666 233.038 217.396 226.99 214.312 221.822L213.76 220.895L220.061 214.6L220.994 216.007C224.883 221.864 226.947 228.742 226.925 235.771Z" fill="#FAFAFA"/>
<path d="M212.253 206.825L205.952 213.149L205.024 212.597C199.852 209.516 193.799 208.247 187.823 208.99C181.848 209.734 176.291 212.447 172.034 216.702C167.776 220.956 165.06 226.508 164.315 232.479C163.571 238.449 164.842 244.497 167.925 249.665L168.477 250.586L162.188 256.86L161.254 255.453C156.703 248.576 154.67 240.338 155.499 232.135C156.328 223.932 159.967 216.267 165.802 210.437C171.637 204.607 179.308 200.97 187.518 200.142C195.728 199.314 203.972 201.346 210.856 205.893L212.253 206.825Z" fill="#FAFAFA"/>
<path d="M313.953 235.738C313.945 242.195 312.188 248.528 308.869 254.067C305.549 259.606 300.791 264.144 295.099 267.199C289.406 270.254 282.993 271.712 276.538 271.419C270.083 271.126 263.828 269.092 258.437 265.534L257.029 264.602L263.33 258.306L264.257 258.858C269.43 261.939 275.483 263.208 281.458 262.464C287.433 261.721 292.99 259.007 297.248 254.753C301.506 250.498 304.222 244.946 304.966 238.976C305.71 233.005 304.44 226.958 301.356 221.79L300.804 220.863L307.105 214.567L308.038 215.974C311.921 221.834 313.979 228.711 313.953 235.738V235.738Z" fill="#FAFAFA"/>
<path d="M299.296 206.792L292.996 213.116L292.068 212.564C286.896 209.483 280.843 208.214 274.867 208.957C268.892 209.701 263.335 212.414 259.077 216.669C254.819 220.923 252.103 226.475 251.359 232.446C250.615 238.416 251.885 244.464 254.969 249.632L255.521 250.553L249.215 256.86L248.282 255.453C243.731 248.576 241.697 240.338 242.526 232.135C243.355 223.932 246.995 216.267 252.829 210.437C258.664 204.607 266.336 200.97 274.546 200.142C282.755 199.314 291 201.346 297.883 205.893L299.296 206.792Z" fill="#FAFAFA"/>
<path d="M393.559 200.837L355.294 270.33L355.066 269.916L355.038 269.977L350.075 260.984L383.199 200.837H393.559Z" fill="#FAFAFA"/>
<path d="M349.869 241.789L344.717 251.241L316.963 200.837H327.323L349.869 241.789Z" fill="#FAFAFA"/>
<path d="M466.162 200.553H408.103V208.758H466.162V200.553Z" fill="#FAFAFA"/>
<path d="M466.162 261.844V270.049H408.103V218.148H415.886V228.603H459.581V236.808H415.886V261.844H466.162Z" fill="#FAFAFA"/>
</g>
<defs>
<clipPath id="clip0_40_7">
<rect width="465.143" height="72.8445" fill="white" transform="translate(0.930908 198.655)"/>
</clipPath>
</defs>
</svg>
