<svg width="452" height="200" viewBox="0 0 452 200" fill="none" xmlns="http://www.w3.org/2000/svg">
<g clip-path="url(#clip0_18_306)">
<path d="M2.51156 154.83H19.8663C21.2587 154.784 22.6356 155.134 23.8374 155.839C24.9048 156.504 25.8105 157.398 26.4884 158.457C27.1766 159.557 27.6737 160.766 27.9588 162.031C28.2663 163.322 28.4212 164.644 28.4203 165.97V186.276C28.4331 186.36 28.426 186.445 28.3998 186.525C28.3736 186.605 28.3289 186.678 28.2693 186.737C28.2098 186.797 28.137 186.842 28.0569 186.868C27.9769 186.894 27.8918 186.901 27.8085 186.888H6.34314C5.78973 186.912 5.23728 186.823 4.71902 186.627C4.20076 186.432 3.72737 186.134 3.32726 185.751C2.54784 184.992 1.93075 184.083 1.51343 183.078C1.0918 182.091 0.789127 181.057 0.611852 179.998C0.473368 179.218 0.390894 178.429 0.365021 177.637C0.38224 176.554 0.508059 175.475 0.740639 174.417C0.971128 173.268 1.36512 172.159 1.91053 171.122C2.43979 170.13 3.17101 169.26 4.05707 168.568C4.94116 167.849 6.05206 167.469 7.191 167.494H17.4729C18.3882 167.54 19.2909 167.267 20.0273 166.722C20.3168 166.514 20.5538 166.243 20.7196 165.928C20.8854 165.613 20.9755 165.264 20.9826 164.908C20.9611 164.284 20.7433 163.683 20.36 163.19C20.189 162.922 19.9525 162.701 19.6728 162.549C19.3931 162.397 19.0793 162.319 18.7609 162.321H2.51156C2.4283 162.334 2.34321 162.327 2.26316 162.301C2.18311 162.274 2.11035 162.23 2.05078 162.17C1.99122 162.111 1.94652 162.038 1.92029 161.958C1.89406 161.878 1.88702 161.793 1.89979 161.709V155.431C1.88889 155.348 1.8973 155.264 1.92435 155.186C1.95141 155.107 1.99637 155.036 2.0557 154.978C2.11502 154.919 2.18713 154.876 2.26624 154.85C2.34535 154.824 2.42932 154.817 2.51156 154.83ZM20.2957 179.687C20.3793 179.699 20.4647 179.692 20.545 179.665C20.6254 179.639 20.6987 179.595 20.759 179.535C20.8193 179.476 20.865 179.404 20.8926 179.324C20.9202 179.244 20.929 179.159 20.9182 179.075V175.383C20.9286 175.299 20.9197 175.213 20.8921 175.133C20.8645 175.052 20.8189 174.98 20.7589 174.92C20.6989 174.86 20.626 174.814 20.5457 174.786C20.4654 174.759 20.3799 174.75 20.2957 174.76H9.34829C9.06205 174.751 8.77803 174.813 8.52152 174.941C8.26501 175.068 8.04394 175.257 7.87791 175.49C7.51385 175.935 7.31645 176.493 7.31979 177.068C7.31015 177.735 7.5257 178.385 7.93156 178.914C8.13581 179.174 8.39908 179.382 8.69957 179.52C9.00006 179.658 9.32911 179.722 9.65951 179.708L20.2957 179.687Z" fill="white"/>
<path d="M55.6491 187.5C55.6619 187.417 55.6548 187.332 55.6286 187.252C55.6024 187.172 55.5577 187.099 55.4981 187.039C55.4386 186.98 55.3658 186.935 55.2857 186.909C55.2057 186.883 55.1206 186.876 55.0373 186.888H48.5977C46.6747 186.909 44.7644 186.575 42.9631 185.901C41.2868 185.259 39.7889 184.225 38.5948 182.885C37.2976 181.383 36.3321 179.624 35.7614 177.723C35.0384 175.286 34.6981 172.751 34.7525 170.21C34.748 168.286 34.9531 166.368 35.3643 164.489C35.7347 162.732 36.4339 161.061 37.425 159.563C38.4078 158.108 39.74 156.924 41.2995 156.118C43.1858 155.201 45.2674 154.759 47.3634 154.83H62.561C62.6446 154.818 62.73 154.825 62.8104 154.851C62.8907 154.877 62.964 154.922 63.0243 154.981C63.0846 155.04 63.1303 155.113 63.1579 155.193C63.1856 155.273 63.1943 155.358 63.1835 155.442V197.847C63.1943 197.93 63.1856 198.016 63.1579 198.096C63.1303 198.175 63.0846 198.248 63.0243 198.307C62.964 198.366 62.8907 198.411 62.8104 198.437C62.73 198.463 62.6446 198.471 62.561 198.458H56.2931C56.2094 198.471 56.1241 198.463 56.0437 198.437C55.9633 198.411 55.89 198.366 55.8297 198.307C55.7694 198.248 55.7237 198.175 55.6961 198.096C55.6685 198.016 55.6598 197.93 55.6706 197.847L55.6491 187.5ZM55.6491 162.955C55.6614 162.871 55.6542 162.785 55.628 162.705C55.6017 162.625 55.5573 162.551 55.498 162.491C55.4387 162.431 55.3663 162.385 55.2863 162.358C55.2064 162.33 55.1212 162.321 55.0373 162.332H46.9127C46.2623 162.341 45.63 162.547 45.0989 162.922C44.4949 163.316 43.9555 163.802 43.4997 164.36C43.0168 164.959 42.6228 165.624 42.3298 166.335C42.0368 166.995 41.8799 167.707 41.8683 168.428V173.161C41.8773 173.9 42.0343 174.63 42.3298 175.308C42.6251 176.024 43.0189 176.696 43.4997 177.304C43.9456 177.884 44.4863 178.385 45.0989 178.785C45.6323 179.156 46.2632 179.361 46.9127 179.376H55.0373C55.1212 179.386 55.2064 179.378 55.2863 179.35C55.3663 179.322 55.4387 179.277 55.498 179.216C55.5573 179.156 55.6017 179.083 55.628 179.002C55.6542 178.922 55.6614 178.837 55.6491 178.753V162.955Z" fill="white"/>
<path d="M90.9168 177.325V156.053C90.9168 155.769 91.0298 155.496 91.2311 155.294C91.4324 155.093 91.7054 154.98 91.99 154.98H97.2813C97.566 154.98 97.8389 155.093 98.0402 155.294C98.2414 155.496 98.3546 155.769 98.3546 156.053V184.506C98.3546 184.817 98.2931 185.125 98.1738 185.412C98.0545 185.699 97.8796 185.96 97.6592 186.179C97.4388 186.398 97.1772 186.572 96.8895 186.69C96.6017 186.808 96.2936 186.868 95.9826 186.867L73.5084 186.77C72.884 186.767 72.2861 186.517 71.8457 186.075C71.4052 185.632 71.1579 185.033 71.1579 184.409V156.053C71.1579 155.769 71.2709 155.496 71.4722 155.294C71.6735 155.093 71.9465 154.98 72.2312 154.98H77.6404C77.9251 154.98 78.198 155.093 78.3993 155.294C78.6006 155.496 78.7137 155.769 78.7137 156.053V177.315C78.7165 177.942 78.9677 178.542 79.4122 178.985C79.8567 179.428 80.4584 179.676 81.0856 179.676H88.5341C89.1614 179.679 89.7642 179.433 90.2107 178.993C90.6573 178.552 90.9111 177.953 90.9168 177.325Z" fill="white"/>
<path d="M108.207 154.83H125.562C126.954 154.786 128.331 155.136 129.533 155.839C130.6 156.501 131.502 157.397 132.173 158.458C132.865 159.557 133.366 160.765 133.654 162.032C133.962 163.322 134.117 164.644 134.116 165.971V186.277C134.127 186.361 134.118 186.446 134.09 186.526C134.063 186.606 134.017 186.678 133.957 186.738C133.896 186.797 133.823 186.841 133.743 186.867C133.662 186.894 133.577 186.901 133.494 186.889H112.028C111.475 186.91 110.923 186.821 110.405 186.625C109.887 186.43 109.413 186.132 109.012 185.751C108.236 184.989 107.62 184.081 107.198 183.079C106.78 182.091 106.481 181.057 106.308 179.998C106.17 179.225 106.088 178.443 106.061 177.659C106.078 176.575 106.204 175.497 106.436 174.439C106.662 173.289 107.056 172.179 107.606 171.144C108.12 170.16 108.828 169.291 109.688 168.589C110.578 167.873 111.691 167.493 112.833 167.516H123.104C124.02 167.565 124.924 167.292 125.659 166.743C125.95 166.538 126.188 166.267 126.354 165.951C126.52 165.636 126.609 165.286 126.614 164.93C126.596 164.307 126.382 163.706 126.002 163.212C125.831 162.944 125.595 162.723 125.315 162.571C125.035 162.419 124.721 162.34 124.403 162.343H108.218C108.135 162.356 108.05 162.349 107.97 162.322C107.889 162.296 107.817 162.252 107.757 162.192C107.698 162.132 107.653 162.06 107.627 161.98C107.6 161.9 107.593 161.814 107.606 161.731V155.453C107.592 155.37 107.597 155.284 107.622 155.204C107.647 155.123 107.691 155.05 107.749 154.989C107.808 154.928 107.88 154.882 107.959 154.855C108.039 154.827 108.124 154.819 108.207 154.83ZM125.991 179.687C126.075 179.7 126.16 179.693 126.24 179.667C126.32 179.64 126.393 179.596 126.452 179.536C126.512 179.476 126.556 179.404 126.583 179.324C126.609 179.244 126.616 179.158 126.603 179.075V175.383C126.615 175.3 126.608 175.214 126.582 175.134C126.556 175.053 126.511 174.98 126.452 174.92C126.393 174.86 126.32 174.814 126.24 174.786C126.16 174.759 126.075 174.75 125.991 174.761H115.033C114.758 174.761 114.487 174.825 114.241 174.948C113.995 175.071 113.781 175.249 113.617 175.469C113.26 175.918 113.067 176.474 113.069 177.047C113.06 177.713 113.275 178.364 113.681 178.893C113.885 179.154 114.148 179.362 114.448 179.5C114.749 179.638 115.078 179.702 115.409 179.687H125.991Z" fill="white"/>
<path d="M142.488 179.386H159.402C159.873 179.408 160.341 179.312 160.765 179.107C161.072 178.935 161.333 178.692 161.527 178.399C161.717 178.113 161.834 177.785 161.871 177.444C161.911 177.127 161.933 176.808 161.935 176.489C161.927 175.931 161.787 175.383 161.527 174.889C161.366 174.608 161.125 174.382 160.834 174.238C160.544 174.095 160.217 174.041 159.896 174.084H150.236C148.948 174.127 147.665 173.885 146.48 173.376C145.504 172.947 144.656 172.27 144.022 171.412C143.375 170.507 142.915 169.481 142.67 168.396C142.372 167.137 142.227 165.847 142.241 164.554C142.187 162.862 142.426 161.173 142.949 159.563C143.351 158.386 144.099 157.357 145.095 156.612C146.199 155.858 147.463 155.373 148.788 155.195C150.564 154.931 152.358 154.809 154.154 154.83H167.452C167.535 154.817 167.62 154.824 167.7 154.85C167.78 154.877 167.853 154.921 167.913 154.981C167.972 155.04 168.017 155.113 168.043 155.193C168.069 155.273 168.076 155.358 168.063 155.442V161.72C168.076 161.804 168.069 161.889 168.043 161.969C168.017 162.049 167.972 162.122 167.913 162.181C167.853 162.241 167.78 162.285 167.7 162.312C167.62 162.338 167.535 162.345 167.452 162.332H151.353C151.074 162.31 150.795 162.365 150.546 162.489C150.296 162.614 150.085 162.805 149.936 163.04C149.653 163.514 149.505 164.056 149.507 164.607C149.519 165.175 149.678 165.73 149.968 166.217C150.102 166.466 150.303 166.671 150.547 166.812C150.792 166.952 151.071 167.021 151.353 167.012H160.347C161.739 166.982 163.128 167.159 164.468 167.537C165.549 167.842 166.521 168.449 167.269 169.287C168.056 170.267 168.603 171.418 168.868 172.646C169.249 174.409 169.422 176.21 169.384 178.013C169.364 178.827 169.275 179.639 169.115 180.438C168.903 181.469 168.541 182.463 168.042 183.39C167.545 184.363 166.842 185.217 165.981 185.89C165 186.628 163.795 187.007 162.568 186.964H142.445C142.361 186.976 142.275 186.969 142.195 186.942C142.115 186.916 142.042 186.872 141.981 186.812C141.921 186.753 141.875 186.681 141.847 186.601C141.82 186.521 141.811 186.436 141.822 186.352V179.998C141.809 179.91 141.818 179.82 141.848 179.736C141.878 179.652 141.928 179.577 141.993 179.517C142.059 179.456 142.138 179.413 142.224 179.39C142.31 179.368 142.401 179.366 142.488 179.386V179.386Z" fill="white"/>
<path d="M202.419 179.386C202.503 179.374 202.588 179.381 202.668 179.407C202.749 179.434 202.822 179.478 202.882 179.537C202.942 179.597 202.988 179.669 203.016 179.749C203.044 179.829 203.052 179.914 203.041 179.998V186.277C203.052 186.361 203.044 186.446 203.016 186.526C202.988 186.606 202.942 186.678 202.882 186.737C202.822 186.797 202.749 186.841 202.668 186.867C202.588 186.893 202.503 186.901 202.419 186.888H190.849C188.894 186.937 186.951 186.581 185.141 185.842C183.331 185.104 181.693 183.998 180.331 182.595C179.129 181.352 178.168 179.897 177.498 178.302C176.86 176.816 176.525 175.218 176.51 173.601V168.428C176.481 166.512 176.786 164.605 177.412 162.794C177.977 161.177 178.928 159.722 180.181 158.554C181.568 157.303 183.219 156.379 185.01 155.849C187.282 155.166 189.647 154.843 192.019 154.894H202.419C202.503 154.882 202.588 154.889 202.668 154.915C202.749 154.942 202.822 154.986 202.882 155.045C202.942 155.105 202.988 155.177 203.016 155.257C203.044 155.337 203.052 155.422 203.041 155.506V161.785C203.052 161.869 203.044 161.954 203.016 162.034C202.988 162.114 202.942 162.186 202.882 162.245C202.822 162.305 202.749 162.349 202.668 162.375C202.588 162.401 202.503 162.409 202.419 162.396H190.795C189.796 162.311 188.79 162.461 187.858 162.834C186.926 163.207 186.094 163.792 185.429 164.543C184.236 166.043 183.612 167.918 183.669 169.834V172.485C183.594 174.308 184.198 176.094 185.365 177.497C186.438 178.785 188.284 179.44 190.731 179.44L202.419 179.386Z" fill="white"/>
<path d="M212.948 154.83H230.302C231.695 154.786 233.071 155.136 234.273 155.839C235.34 156.501 236.243 157.397 236.914 158.458C237.605 159.557 238.106 160.765 238.395 162.031C238.697 163.323 238.852 164.644 238.856 165.97V186.277C238.867 186.361 238.859 186.446 238.831 186.526C238.803 186.606 238.757 186.678 238.697 186.737C238.637 186.797 238.564 186.841 238.483 186.867C238.403 186.893 238.318 186.901 238.234 186.888H216.768C216.215 186.91 215.663 186.82 215.145 186.625C214.627 186.43 214.154 186.132 213.753 185.751C212.977 184.989 212.36 184.081 211.939 183.078C211.52 182.091 211.221 181.057 211.048 179.998C210.911 179.225 210.828 178.443 210.801 177.658C210.814 176.575 210.936 175.497 211.166 174.438C211.401 173.291 211.795 172.182 212.336 171.144C212.872 170.156 213.602 169.288 214.482 168.589C215.372 167.872 216.485 167.492 217.627 167.516H227.898C228.814 167.565 229.718 167.292 230.453 166.743C230.742 166.536 230.979 166.264 231.145 165.949C231.311 165.634 231.401 165.285 231.408 164.929C231.39 164.307 231.176 163.706 230.796 163.212C230.625 162.944 230.389 162.723 230.109 162.571C229.829 162.419 229.515 162.34 229.197 162.343H213.012C212.928 162.355 212.843 162.348 212.763 162.322C212.682 162.295 212.609 162.251 212.549 162.192C212.488 162.132 212.443 162.06 212.415 161.98C212.387 161.9 212.379 161.815 212.39 161.731V155.452C212.379 155.373 212.385 155.293 212.408 155.217C212.431 155.141 212.471 155.071 212.524 155.012C212.577 154.952 212.643 154.905 212.716 154.874C212.789 154.843 212.868 154.828 212.948 154.83V154.83ZM230.732 179.687C230.815 179.7 230.9 179.693 230.98 179.666C231.06 179.64 231.133 179.595 231.193 179.536C231.252 179.476 231.297 179.404 231.323 179.323C231.349 179.243 231.356 179.158 231.343 179.075V175.383C231.356 175.299 231.349 175.214 231.322 175.134C231.296 175.053 231.252 174.98 231.192 174.92C231.133 174.859 231.061 174.814 230.981 174.786C230.901 174.758 230.816 174.75 230.732 174.76H219.774C219.499 174.76 219.228 174.824 218.982 174.947C218.736 175.07 218.522 175.249 218.357 175.469C218.001 175.917 217.808 176.474 217.81 177.047C217.8 177.713 218.016 178.364 218.421 178.893C218.625 179.153 218.888 179.362 219.189 179.5C219.489 179.638 219.819 179.702 220.149 179.687H230.732Z" fill="white"/>
<path d="M253.378 197.847C253.391 197.93 253.384 198.015 253.357 198.095C253.331 198.175 253.286 198.248 253.227 198.307C253.167 198.367 253.094 198.412 253.014 198.438C252.934 198.464 252.849 198.471 252.766 198.458H246.487C246.404 198.471 246.318 198.463 246.238 198.437C246.158 198.411 246.084 198.366 246.024 198.307C245.964 198.248 245.918 198.175 245.89 198.096C245.863 198.016 245.854 197.93 245.865 197.847V155.442C245.854 155.358 245.863 155.273 245.89 155.193C245.918 155.113 245.964 155.04 246.024 154.981C246.084 154.922 246.158 154.877 246.238 154.851C246.318 154.825 246.404 154.818 246.487 154.83H261.685C263.781 154.759 265.863 155.201 267.749 156.118C269.308 156.924 270.641 158.108 271.623 159.563C272.614 161.061 273.314 162.732 273.684 164.489C274.095 166.368 274.3 168.286 274.296 170.21C274.35 172.751 274.01 175.286 273.287 177.723C272.716 179.624 271.751 181.383 270.454 182.885C269.261 184.227 267.763 185.262 266.085 185.901C264.284 186.575 262.374 186.909 260.451 186.888H254.011C253.928 186.876 253.843 186.883 253.763 186.909C253.682 186.935 253.61 186.98 253.55 187.039C253.491 187.099 253.446 187.172 253.42 187.252C253.393 187.332 253.386 187.417 253.399 187.5L253.378 197.847ZM253.378 178.764C253.365 178.847 253.373 178.933 253.399 179.013C253.425 179.094 253.47 179.167 253.529 179.227C253.588 179.287 253.661 179.333 253.741 179.361C253.82 179.388 253.906 179.397 253.99 179.386H262.114C262.764 179.372 263.394 179.167 263.928 178.796C264.541 178.396 265.081 177.895 265.527 177.315C266.012 176.71 266.406 176.037 266.697 175.319C266.993 174.641 267.149 173.911 267.158 173.172V168.439C267.147 167.717 266.99 167.006 266.697 166.346C266.408 165.633 266.014 164.967 265.527 164.371C265.071 163.812 264.532 163.327 263.928 162.933C263.397 162.558 262.765 162.352 262.114 162.343H253.99C253.906 162.332 253.82 162.341 253.741 162.368C253.661 162.396 253.588 162.442 253.529 162.502C253.47 162.562 253.425 162.635 253.399 162.716C253.373 162.796 253.365 162.882 253.378 162.965V178.764Z" fill="white"/>
<path d="M281.379 142.766H287.658C287.741 142.754 287.826 142.761 287.906 142.787C287.986 142.813 288.059 142.858 288.119 142.917C288.178 142.977 288.223 143.05 288.249 143.13C288.276 143.21 288.283 143.295 288.27 143.378V149.657C288.283 149.74 288.276 149.825 288.249 149.905C288.223 149.985 288.178 150.058 288.119 150.118C288.059 150.177 287.986 150.222 287.906 150.248C287.826 150.274 287.741 150.281 287.658 150.269H281.379C281.296 150.281 281.211 150.274 281.131 150.248C281.051 150.222 280.978 150.177 280.919 150.118C280.859 150.058 280.814 149.985 280.788 149.905C280.762 149.825 280.755 149.74 280.768 149.657V143.378C280.755 143.295 280.762 143.21 280.788 143.13C280.814 143.05 280.859 142.977 280.919 142.917C280.978 142.858 281.051 142.813 281.131 142.787C281.211 142.761 281.296 142.754 281.379 142.766V142.766ZM280.768 155.442C280.755 155.359 280.762 155.273 280.788 155.193C280.814 155.113 280.859 155.041 280.919 154.981C280.978 154.921 281.051 154.877 281.131 154.85C281.211 154.824 281.296 154.817 281.379 154.83H287.658C287.741 154.817 287.826 154.824 287.906 154.85C287.986 154.877 288.059 154.921 288.119 154.981C288.178 155.041 288.223 155.113 288.249 155.193C288.276 155.273 288.283 155.359 288.27 155.442V186.277C288.283 186.36 288.276 186.445 288.249 186.525C288.223 186.605 288.178 186.678 288.119 186.738C288.059 186.797 287.986 186.842 287.906 186.868C287.826 186.894 287.741 186.901 287.658 186.889H281.379C281.296 186.901 281.211 186.894 281.131 186.868C281.051 186.842 280.978 186.797 280.919 186.738C280.859 186.678 280.814 186.605 280.788 186.525C280.762 186.445 280.755 186.36 280.768 186.277V155.442Z" fill="white"/>
<path d="M304.025 184.924C304.025 186.234 303.446 186.888 302.297 186.888H298.176C297.917 186.902 297.66 186.839 297.437 186.707C297.213 186.576 297.034 186.381 296.92 186.148C296.641 185.619 296.501 185.028 296.512 184.431V158.887C296.524 158.359 296.643 157.839 296.86 157.357C297.078 156.876 297.39 156.443 297.779 156.086C298.202 155.669 298.706 155.343 299.26 155.127C299.813 154.911 300.405 154.81 300.999 154.83H314.951C316.374 154.82 317.781 155.124 319.072 155.721C320.325 156.299 321.46 157.103 322.421 158.093C323.381 159.066 324.146 160.213 324.675 161.473C325.198 162.721 325.468 164.06 325.469 165.412V186.277C325.469 186.685 325.244 186.888 324.793 186.888H318.579C318.496 186.901 318.41 186.894 318.33 186.868C318.25 186.842 318.178 186.797 318.118 186.738C318.058 186.678 318.014 186.605 317.988 186.525C317.961 186.445 317.954 186.36 317.967 186.277V166.7C317.994 165.836 317.837 164.976 317.506 164.178C317.224 163.555 316.775 163.024 316.207 162.643C315.62 162.262 314.963 162 314.275 161.871C313.482 161.725 312.677 161.653 311.871 161.656H305.904C305.436 161.666 304.988 161.841 304.637 162.15C304.465 162.273 304.324 162.434 304.224 162.62C304.123 162.805 304.066 163.012 304.057 163.223L304.025 184.924Z" fill="white"/>
<path d="M336.578 192.426H353.192C353.416 192.442 353.641 192.412 353.853 192.338C354.065 192.264 354.26 192.148 354.426 191.997C354.716 191.711 354.936 191.362 355.07 190.977C355.217 190.563 355.3 190.129 355.317 189.689C355.317 189.217 355.317 188.799 355.317 188.423V186.888H346.151C344.509 186.879 342.886 186.544 341.375 185.901C339.761 185.229 338.3 184.236 337.082 182.982C335.756 181.61 334.7 180.001 333.97 178.238C333.136 176.195 332.727 174.004 332.767 171.798V167.87C332.764 166.221 333.014 164.581 333.508 163.008C333.984 161.487 334.758 160.075 335.783 158.854C336.877 157.602 338.233 156.605 339.754 155.935C341.573 155.169 343.535 154.803 345.507 154.862H359.728C360.603 154.817 361.469 155.066 362.186 155.57C362.512 155.854 362.765 156.211 362.926 156.613C363.086 157.014 363.149 157.447 363.109 157.878V190.859C363.085 191.827 362.866 192.78 362.465 193.661C362.032 194.673 361.437 195.608 360.705 196.43C359.969 197.267 359.099 197.974 358.129 198.522C357.169 199.062 356.086 199.347 354.984 199.349H336.524C336.441 199.362 336.356 199.355 336.275 199.328C336.195 199.302 336.123 199.257 336.063 199.198C336.004 199.138 335.959 199.066 335.933 198.986C335.906 198.905 335.899 198.82 335.912 198.737V193.07C335.89 192.979 335.892 192.884 335.918 192.794C335.944 192.704 335.993 192.623 336.06 192.558C336.128 192.492 336.211 192.446 336.302 192.423C336.392 192.4 336.487 192.401 336.578 192.426V192.426ZM341.536 174.76C341.814 175.749 342.356 176.643 343.103 177.347C343.952 178.104 344.978 178.636 346.087 178.892C347.631 179.251 349.214 179.417 350.798 179.386H354.737C354.821 179.397 354.906 179.388 354.986 179.361C355.066 179.333 355.139 179.287 355.198 179.227C355.257 179.167 355.302 179.093 355.328 179.013C355.354 178.933 355.361 178.847 355.349 178.764V162.954C355.361 162.871 355.354 162.785 355.328 162.705C355.302 162.625 355.257 162.551 355.198 162.491C355.139 162.431 355.066 162.385 354.986 162.357C354.906 162.33 354.821 162.321 354.737 162.332H346.666C345.847 162.259 345.024 162.397 344.272 162.731C343.521 163.065 342.868 163.585 342.373 164.242C341.413 165.81 340.953 167.633 341.053 169.469V171.068C341.033 172.316 341.196 173.56 341.536 174.76V174.76Z" fill="white"/>
<path d="M370.053 179.193C370.042 179.109 370.051 179.024 370.078 178.944C370.106 178.864 370.152 178.792 370.212 178.733C370.272 178.673 370.345 178.629 370.426 178.603C370.506 178.576 370.592 178.569 370.675 178.581H377.748C377.831 178.569 377.916 178.576 377.997 178.602C378.077 178.628 378.149 178.673 378.209 178.732C378.268 178.792 378.313 178.865 378.339 178.945C378.366 179.025 378.373 179.11 378.36 179.193V186.277C378.373 186.36 378.366 186.445 378.339 186.525C378.313 186.605 378.268 186.678 378.209 186.738C378.149 186.797 378.077 186.842 377.997 186.868C377.916 186.894 377.831 186.901 377.748 186.888H370.643C370.559 186.901 370.474 186.894 370.394 186.867C370.313 186.841 370.24 186.797 370.18 186.737C370.12 186.678 370.074 186.606 370.046 186.526C370.018 186.446 370.01 186.361 370.021 186.277L370.053 179.193Z" fill="white"/>
<path d="M386.549 179.386H403.475C403.941 179.407 404.406 179.311 404.827 179.107C405.139 178.939 405.404 178.695 405.6 178.399C405.78 178.109 405.893 177.783 405.932 177.444C405.973 177.127 405.994 176.808 405.997 176.489C405.993 175.932 405.857 175.383 405.6 174.889C405.437 174.609 405.196 174.384 404.906 174.24C404.615 174.097 404.289 174.043 403.968 174.084H394.309C393.02 174.128 391.737 173.886 390.552 173.376C389.573 172.947 388.722 172.27 388.084 171.412C387.442 170.504 386.983 169.479 386.732 168.396C386.439 167.137 386.294 165.847 386.302 164.554C386.248 162.862 386.488 161.173 387.011 159.563C387.414 158.386 388.162 157.358 389.157 156.612C390.261 155.858 391.525 155.373 392.849 155.195C394.625 154.93 396.42 154.808 398.215 154.83H411.503C411.586 154.817 411.671 154.824 411.751 154.85C411.831 154.877 411.904 154.921 411.963 154.981C412.023 155.04 412.068 155.113 412.094 155.193C412.12 155.273 412.127 155.358 412.114 155.442V161.72C412.127 161.804 412.12 161.889 412.094 161.969C412.068 162.049 412.023 162.122 411.963 162.181C411.904 162.241 411.831 162.285 411.751 162.312C411.671 162.338 411.586 162.345 411.503 162.332H395.403C395.125 162.31 394.846 162.365 394.597 162.489C394.347 162.614 394.136 162.805 393.987 163.04C393.699 163.512 393.551 164.055 393.558 164.607C393.567 165.175 393.726 165.731 394.019 166.217C394.152 166.466 394.352 166.673 394.597 166.813C394.842 166.954 395.121 167.023 395.403 167.012H404.387C405.779 166.982 407.168 167.159 408.508 167.537C409.589 167.842 410.561 168.449 411.309 169.287C412.104 170.262 412.652 171.415 412.909 172.646C413.299 174.407 413.476 176.209 413.434 178.013C413.411 178.828 413.317 179.639 413.155 180.438C412.965 181.467 412.621 182.462 412.136 183.39C411.645 184.367 410.941 185.222 410.075 185.89C409.094 186.628 407.889 187.007 406.662 186.964H386.538C386.455 186.976 386.37 186.969 386.29 186.943C386.21 186.917 386.137 186.872 386.077 186.813C386.018 186.753 385.973 186.68 385.947 186.6C385.921 186.52 385.914 186.435 385.927 186.352V179.998C385.913 179.914 385.92 179.828 385.947 179.747C385.974 179.666 386.02 179.592 386.081 179.532C386.142 179.472 386.216 179.428 386.297 179.403C386.379 179.377 386.465 179.372 386.549 179.386Z" fill="white"/>
<path d="M427.29 175.072C427.283 175.673 427.455 176.264 427.784 176.768C428.127 177.304 428.576 177.764 429.104 178.12C429.716 178.533 430.39 178.845 431.1 179.043C431.903 179.273 432.734 179.389 433.569 179.386H448.208C448.292 179.374 448.377 179.381 448.458 179.407C448.538 179.434 448.611 179.478 448.672 179.537C448.732 179.597 448.778 179.669 448.805 179.749C448.833 179.829 448.842 179.914 448.831 179.998V186.277C448.842 186.361 448.833 186.446 448.805 186.526C448.778 186.606 448.732 186.678 448.672 186.737C448.611 186.797 448.538 186.841 448.458 186.867C448.377 186.894 448.292 186.901 448.208 186.888H437.808C434.923 186.939 432.041 186.651 429.222 186.03C427.163 185.579 425.241 184.64 423.62 183.293C422.186 182.016 421.141 180.361 420.604 178.517C419.966 176.255 419.666 173.912 419.713 171.562C419.621 168.77 420.133 165.991 421.216 163.416C422.102 161.414 423.452 159.651 425.155 158.275C426.771 157.001 428.641 156.086 430.639 155.592C432.639 155.089 434.694 154.833 436.757 154.83C438.986 154.787 441.208 155.088 443.346 155.721C445.028 156.223 446.58 157.084 447.897 158.243C449.087 159.328 449.988 160.693 450.516 162.214C451.086 163.897 451.365 165.664 451.342 167.441V173.88C451.355 173.964 451.347 174.049 451.321 174.13C451.295 174.21 451.25 174.283 451.191 174.344C451.132 174.404 451.06 174.45 450.98 174.477C450.9 174.505 450.814 174.514 450.731 174.503H427.956C427.873 174.482 427.786 174.481 427.702 174.501C427.619 174.52 427.541 174.56 427.476 174.615C427.411 174.671 427.36 174.742 427.328 174.821C427.295 174.9 427.283 174.986 427.29 175.072ZM443.722 167.258C443.805 167.271 443.89 167.264 443.97 167.238C444.051 167.212 444.123 167.167 444.183 167.107C444.242 167.048 444.287 166.975 444.313 166.895C444.34 166.815 444.347 166.73 444.334 166.647C444.342 165.891 444.147 165.146 443.769 164.491C443.392 163.836 442.845 163.295 442.187 162.922C440.336 161.89 438.228 161.41 436.113 161.538C435.189 161.55 434.27 161.672 433.376 161.903C432.381 162.166 431.414 162.526 430.489 162.976C429.628 163.363 428.845 163.905 428.181 164.575C427.891 164.853 427.66 165.186 427.502 165.555C427.343 165.923 427.26 166.32 427.258 166.722C427.245 166.805 427.252 166.89 427.279 166.97C427.305 167.05 427.35 167.123 427.409 167.183C427.469 167.242 427.541 167.287 427.621 167.313C427.702 167.339 427.787 167.346 427.87 167.333L443.722 167.258Z" fill="white"/>
<path d="M280.951 9.82614V101.483C280.951 101.97 280.757 102.438 280.412 102.783C280.068 103.128 279.6 103.321 279.112 103.321H156.496C156.008 103.321 155.541 103.128 155.196 102.783C154.851 102.438 154.658 101.97 154.658 101.483V41.604C154.658 41.1164 154.851 40.6488 155.196 40.304C155.541 39.9592 156.008 39.7655 156.496 39.7655H247.362C247.85 39.7655 248.317 39.9592 248.662 40.304C249.007 40.6488 249.2 41.1164 249.2 41.604V53.8206C249.2 54.3082 249.007 54.7758 248.662 55.1206C248.317 55.4654 247.85 55.659 247.362 55.659H172.389C171.902 55.659 171.434 55.8527 171.089 56.1975C170.745 56.5423 170.551 57.0099 170.551 57.4975V85.5984C170.551 86.086 170.745 86.5536 171.089 86.8984C171.434 87.2432 171.902 87.4369 172.389 87.4369H263.219C263.706 87.4369 264.174 87.2432 264.519 86.8984C264.864 86.5536 265.057 86.086 265.057 85.5984V25.7105C265.057 25.2229 264.864 24.7552 264.519 24.4105C264.174 24.0657 263.706 23.872 263.219 23.872H172.353C171.865 23.872 171.398 23.6783 171.053 23.3335C170.708 22.9887 170.514 22.5211 170.514 22.0335V9.82614C170.514 9.33854 170.708 8.87092 171.053 8.52614C171.398 8.18137 171.865 7.98767 172.353 7.98767H279.076C279.32 7.98278 279.563 8.02674 279.79 8.11694C280.018 8.20714 280.225 8.34178 280.399 8.51299C280.574 8.68419 280.713 8.88851 280.807 9.11399C280.902 9.33947 280.951 9.58158 280.951 9.82614Z" fill="#FCFCFC"/>
</g>
<defs>
<clipPath id="clip0_18_306">
<rect width="450.967" height="199.317" fill="white" transform="translate(0.322021)"/>
</clipPath>
</defs>
</svg>
