<svg width="469" height="214" viewBox="0 0 469 214" fill="none" xmlns="http://www.w3.org/2000/svg">
<g clip-path="url(#clip0_31_5)">
<path d="M198.429 117.549C199.364 117.552 200.297 117.446 201.207 117.232C205.856 116.179 209.958 112.877 213.33 109.379C214.06 108.625 214.768 107.848 215.435 107.077C226.43 94.4892 233.449 77.3098 234.203 60.5734C234.203 59.9981 234.254 59.4227 234.266 58.8474L233.081 59.9636C216.839 75.2559 196.938 87.4472 175.599 95.7032C176.031 101.042 179.845 105.651 183.654 109.442C187.693 113.492 192.652 117.549 198.429 117.549Z" fill="#670916"/>
<path d="M175.864 91.8947C175.578 93.1408 175.489 94.4239 175.599 95.6976C196.938 87.4416 216.839 75.2503 233.081 59.958C220.7 71.3036 203.555 78.5067 186.83 79.6344C185.829 79.7034 184.782 79.7494 183.723 79.7724C180.213 83.1439 176.923 87.2345 175.864 91.8947Z" fill="#461018"/>
<path d="M169.587 76.7518C173.614 79.3005 178.867 79.8643 183.723 79.7723C184.782 79.7723 185.829 79.7033 186.83 79.6342C203.555 78.4835 220.7 71.3034 233.081 59.9579L234.266 58.8417C233.869 58.4677 233.483 58.0938 233.081 57.7256C226.947 52.1696 219.939 47.662 212.34 44.3836C204.262 40.8279 195.633 38.6872 186.83 38.055C185.829 37.9802 184.782 37.9341 183.723 37.9111C178.867 37.8306 173.637 38.4002 169.587 40.9374C163.535 44.7461 162.683 52.2426 162.683 58.859V59.1236C162.706 65.6536 163.627 73.0006 169.587 76.7518Z" fill="#750F1F"/>
<path d="M233.081 57.7255C233.483 58.0937 233.869 58.4677 234.266 58.8416C234.266 58.2663 234.226 57.691 234.203 57.1157C233.785 48.891 232.022 40.7903 228.984 33.1358C225.785 24.9136 221.203 17.2994 215.435 10.6231C214.768 9.85213 214.06 9.08694 213.33 8.32175C209.958 4.82373 205.85 1.52708 201.207 0.468471C194.234 -1.11369 188.326 3.57526 183.665 8.26997C179.845 12.0557 176.031 16.6698 175.611 22.0147C178.096 22.9812 180.561 23.9976 183.004 25.0639C201.501 33.1186 218.761 44.2052 233.081 57.7255Z" fill="#670916"/>
<path d="M212.34 44.3834C219.939 47.6618 226.947 52.1694 233.081 57.7253C218.761 44.205 201.501 33.1184 182.992 25.0292C180.553 23.9591 178.089 22.9427 175.599 21.98C175.567 22.3165 175.551 22.6545 175.553 22.9926C175.553 23.9275 175.657 24.8597 175.864 25.7714C176.923 30.4316 180.225 34.5337 183.723 37.8937C184.782 37.8937 185.829 37.9627 186.83 38.0375C195.634 38.6752 204.263 40.8217 212.34 44.3834Z" fill="#461018"/>
<path d="M270.098 117.549C269.162 117.553 268.229 117.447 267.319 117.233C262.67 116.18 258.568 112.877 255.197 109.379C254.466 108.626 253.758 107.849 253.091 107.078C242.096 94.4897 235.077 77.3103 234.323 60.5739C234.323 59.9986 234.272 59.4232 234.26 58.8479L235.445 59.964C251.687 75.2564 271.582 87.4476 292.927 95.7037C292.495 101.043 288.681 105.651 284.872 109.443C280.839 113.493 275.874 117.549 270.098 117.549Z" fill="#192B56"/>
<path d="M292.662 91.8947C292.948 93.1408 293.037 94.4239 292.927 95.6976C271.582 87.4416 251.687 75.2503 235.445 59.958C247.827 71.3036 264.971 78.5067 281.696 79.6344C282.697 79.7034 283.745 79.7494 284.803 79.7724C288.301 83.1439 291.604 87.2345 292.662 91.8947Z" fill="#0B1C41"/>
<path d="M298.939 76.7519C294.912 79.3006 289.659 79.8645 284.803 79.7724C283.745 79.7724 282.697 79.7034 281.696 79.6343C264.971 78.4837 247.827 71.3035 235.445 59.958L234.26 58.8418C234.657 58.4679 235.043 58.0939 235.445 57.7257C241.58 52.1698 248.587 47.6621 256.186 44.3837C264.264 40.828 272.893 38.6873 281.696 38.0551C282.697 37.9803 283.745 37.9343 284.803 37.9113C289.659 37.8307 294.889 38.4003 298.939 40.9375C304.991 44.7462 305.843 52.2428 305.843 58.8591V59.1238C305.82 65.6538 304.899 73.0008 298.939 76.7519Z" fill="#143257"/>
<path d="M235.445 57.7256C235.043 58.0938 234.657 58.4678 234.26 58.8418C234.26 58.2664 234.3 57.6911 234.323 57.1158C234.741 48.8911 236.504 40.7904 239.542 33.1359C242.741 24.9137 247.323 17.2995 253.091 10.6232C253.758 9.85225 254.466 9.08706 255.197 8.32187C258.568 4.82385 262.676 1.5272 267.319 0.468593C274.292 -1.11357 280.2 3.57538 284.861 8.27009C288.681 12.0558 292.495 16.6699 292.915 22.0148C290.43 22.9813 287.966 23.9978 285.522 25.064C267.002 33.1187 249.788 44.2053 235.445 57.7256Z" fill="#192B56"/>
<path d="M256.186 44.3838C248.587 47.6621 241.58 52.1698 235.445 57.7257C249.788 44.2054 267.002 33.1188 285.534 25.0296C287.973 23.9595 290.438 22.9431 292.927 21.9803C292.959 22.3169 292.975 22.6548 292.973 22.9929C292.973 23.9279 292.869 24.86 292.662 25.7718C291.604 30.432 288.301 34.5341 284.803 37.894C283.745 37.894 282.697 37.9631 281.696 38.0379C272.892 38.6755 264.263 40.8221 256.186 44.3838V44.3838Z" fill="#0B1C41"/>
</g>
<g clip-path="url(#clip1_31_5)">
<path d="M24.2838 188.271C25.4924 189.855 26.1076 191.812 26.0224 193.803C26.0224 197.428 24.9687 200.017 22.8613 201.571C20.6086 203.164 17.8981 203.98 15.1403 203.895H2.55123C2.24104 203.9 1.93297 203.842 1.64616 203.724C1.35934 203.606 1.0999 203.43 0.883759 203.207C0.661431 202.992 0.485642 202.734 0.367359 202.449C0.249077 202.163 0.190836 201.857 0.196223 201.548V171.983C0.19069 171.673 0.248811 171.365 0.36707 171.078C0.485329 170.791 0.661209 170.532 0.883759 170.316C1.0999 170.093 1.35934 169.917 1.64616 169.799C1.93297 169.681 2.24104 169.623 2.55123 169.628H15.1403C18.1117 169.628 20.3746 170.363 21.9288 171.833C23.483 173.303 24.2575 175.426 24.2522 178.203C24.2794 179.677 23.8905 181.128 23.1301 182.391C22.3441 183.642 21.198 184.625 19.8425 185.213C21.5845 185.787 23.1256 186.848 24.2838 188.271V188.271ZM17.9616 175.437C16.9954 174.591 15.7348 174.159 14.4527 174.236H5.20655V183.79H14.5713C15.805 183.798 16.9953 183.335 17.8984 182.494C18.3568 182.027 18.7118 181.47 18.9405 180.857C19.1692 180.244 19.2665 179.59 19.226 178.938C19.2695 178.299 19.1803 177.658 18.964 177.056C18.7478 176.453 18.4092 175.902 17.9695 175.437H17.9616ZM19.4315 198.023C19.9894 197.486 20.4206 196.831 20.694 196.107C20.9674 195.382 21.076 194.606 21.0121 193.834C21.0121 190.204 18.9547 188.392 14.84 188.397H5.20655V199.461H15.1087C16.6783 199.536 18.2194 199.023 19.4315 198.023V198.023Z" fill="#ECECEC"/>
<path d="M54.8596 178.938C55.076 179.158 55.2463 179.418 55.3603 179.705C55.4743 179.991 55.5298 180.297 55.5235 180.605V193.637C55.5235 197.035 54.583 199.67 52.7022 201.54C50.8213 203.41 48.1607 204.353 44.7204 204.369C41.3222 204.369 38.6879 203.429 36.8176 201.548C34.9473 199.667 34.0147 197.033 34.02 193.645V180.605C34.0137 180.297 34.0692 179.991 34.1832 179.705C34.2973 179.418 34.4675 179.158 34.6839 178.938C34.8944 178.715 35.1494 178.538 35.4326 178.419C35.7158 178.301 36.0208 178.243 36.3277 178.25C36.6408 178.24 36.9525 178.296 37.2426 178.415C37.5326 178.533 37.7945 178.712 38.011 178.938C38.2274 179.158 38.3976 179.418 38.5116 179.705C38.6256 179.991 38.6811 180.297 38.6748 180.605V193.637C38.6748 197.92 40.6847 200.059 44.7046 200.054C45.5311 200.116 46.3614 200.008 47.1444 199.736C47.9273 199.464 48.6462 199.034 49.2566 198.474C50.3076 197.391 50.8371 195.795 50.8371 193.669V180.605C50.8292 179.985 51.0647 179.387 51.493 178.938C51.7035 178.715 51.9586 178.538 52.2418 178.419C52.525 178.301 52.83 178.243 53.1369 178.25C53.4564 178.236 53.7755 178.289 54.0726 178.408C54.3697 178.526 54.638 178.707 54.8596 178.938V178.938Z" fill="#ECECEC"/>
<path d="M63.0153 198.584C63.029 198.242 63.1316 197.908 63.3131 197.617C63.4946 197.326 63.7488 197.088 64.0505 196.925C64.3781 196.693 64.7712 196.571 65.1728 196.577C65.4719 196.588 65.7659 196.659 66.0373 196.785C66.3088 196.911 66.5522 197.09 66.7533 197.312C67.631 198.346 68.7056 199.195 69.9144 199.809C71.1771 200.399 72.5598 200.685 73.9527 200.647C75.1036 200.641 76.2343 200.345 77.2403 199.786C77.6994 199.528 78.076 199.146 78.3264 198.683C78.5768 198.22 78.6907 197.695 78.6548 197.17C78.671 196.653 78.5448 196.141 78.2897 195.691C78.0346 195.24 77.6606 194.869 77.2087 194.617C75.8758 193.899 74.4505 193.367 72.9728 193.037C71.4158 192.632 69.8936 192.103 68.4208 191.456C67.2227 190.924 66.1708 190.111 65.3545 189.085C64.4802 187.923 64.0387 186.492 64.1059 185.039C64.0841 183.646 64.523 182.285 65.3545 181.167C66.2229 180.028 67.3721 179.135 68.6894 178.575C70.1146 177.943 71.659 177.625 73.2178 177.642C74.8185 177.646 76.4046 177.946 77.8962 178.527C79.3838 179.065 80.6976 179.996 81.6975 181.222C82.0587 181.606 82.2668 182.109 82.2823 182.637C82.2649 182.932 82.1855 183.22 82.0494 183.483C81.9132 183.746 81.7233 183.977 81.492 184.162C81.154 184.457 80.7158 184.613 80.267 184.596C80.0017 184.608 79.7371 184.561 79.4915 184.46C79.2459 184.359 79.0252 184.206 78.8446 184.012C78.1539 183.223 77.2914 182.604 76.3235 182.202C75.275 181.765 74.1482 181.547 73.0123 181.562C71.9069 181.538 70.8153 181.811 69.8512 182.352C69.4179 182.619 69.0672 183.002 68.8384 183.457C68.6096 183.912 68.5115 184.421 68.5552 184.928C68.5477 185.449 68.6829 185.961 68.9463 186.409C69.2096 186.858 69.591 187.226 70.0488 187.473C71.4538 188.195 72.943 188.739 74.4822 189.093C75.9606 189.457 77.4043 189.948 78.7971 190.563C79.9408 191.083 80.9355 191.882 81.6896 192.886C82.5197 194.067 82.9339 195.491 82.8671 196.933C82.8877 198.363 82.4193 199.757 81.5394 200.884C80.6332 202.034 79.4428 202.927 78.0858 203.476C76.6543 204.085 75.1132 204.395 73.5576 204.385C71.6008 204.406 69.6591 204.041 67.8439 203.31C66.0872 202.582 64.5567 201.398 63.4105 199.88C63.1611 199.493 63.0243 199.045 63.0153 198.584V198.584Z" fill="#ECECEC"/>
<path d="M90.7697 174.26C90.5529 174.048 90.3859 173.79 90.2806 173.506C90.1754 173.222 90.1346 172.918 90.1612 172.616V171.826C90.1297 171.515 90.1737 171.201 90.2892 170.911C90.4048 170.62 90.5885 170.362 90.825 170.158C91.4346 169.788 92.1446 169.616 92.8561 169.668C93.5577 169.607 94.2588 169.792 94.8397 170.19C95.0591 170.398 95.2285 170.654 95.3352 170.937C95.442 171.22 95.4833 171.524 95.456 171.826V172.616C95.489 172.925 95.4483 173.237 95.337 173.527C95.2257 173.817 95.0471 174.076 94.8159 174.283C94.2176 174.66 93.5131 174.832 92.8086 174.773C92.0906 174.836 91.3724 174.655 90.7697 174.26V174.26ZM94.5077 203.239C94.2897 203.466 94.0265 203.644 93.7352 203.763C93.4438 203.881 93.1308 203.937 92.8165 203.927C92.5096 203.934 92.2048 203.876 91.9216 203.758C91.6384 203.639 91.3832 203.463 91.1728 203.239C90.9566 203.021 90.7864 202.762 90.6724 202.477C90.5583 202.192 90.5027 201.887 90.5089 201.58V180.361C90.5025 180.052 90.5581 179.746 90.6721 179.46C90.7861 179.173 90.9564 178.913 91.1728 178.693C91.3832 178.47 91.6384 178.293 91.9216 178.175C92.2048 178.056 92.5096 177.999 92.8165 178.006C93.1308 177.995 93.4438 178.051 93.7352 178.17C94.0265 178.288 94.2897 178.466 94.5077 178.693C94.7231 178.913 94.8921 179.174 95.0047 179.46C95.1174 179.747 95.1714 180.053 95.1636 180.361V201.58C95.1713 201.886 95.1171 202.191 95.0044 202.476C94.8917 202.761 94.7228 203.021 94.5077 203.239V203.239Z" fill="#ECECEC"/>
<path d="M126.222 188.224V201.579C126.227 201.886 126.173 202.19 126.06 202.475C125.947 202.76 125.779 203.019 125.566 203.239C125.347 203.465 125.084 203.643 124.793 203.761C124.501 203.879 124.189 203.936 123.874 203.926C123.568 203.933 123.263 203.876 122.979 203.757C122.696 203.639 122.441 203.462 122.231 203.239C122.014 203.021 121.844 202.762 121.73 202.476C121.616 202.191 121.561 201.886 121.567 201.579V188.295C121.652 186.657 121.188 185.038 120.247 183.695C119.362 182.547 117.924 181.975 115.932 181.98C114.697 181.963 113.477 182.257 112.384 182.834C111.363 183.366 110.501 184.16 109.887 185.134C109.286 186.078 108.97 187.176 108.978 188.295V201.579C108.984 201.886 108.928 202.191 108.814 202.476C108.7 202.762 108.53 203.021 108.314 203.239C108.096 203.466 107.833 203.644 107.541 203.762C107.25 203.881 106.937 203.937 106.623 203.926C106.314 203.939 106.006 203.886 105.718 203.772C105.431 203.657 105.171 203.484 104.955 203.263C104.532 202.806 104.305 202.202 104.323 201.579V180.605C104.317 180.297 104.372 179.991 104.486 179.704C104.6 179.418 104.77 179.157 104.987 178.938C105.195 178.714 105.449 178.537 105.731 178.418C106.013 178.3 106.317 178.242 106.623 178.25C106.937 178.24 107.25 178.296 107.541 178.414C107.833 178.533 108.096 178.711 108.314 178.938C108.53 179.157 108.701 179.418 108.815 179.704C108.929 179.991 108.984 180.297 108.978 180.605V182.32C109.887 180.956 111.102 179.822 112.526 179.009C114 178.128 115.685 177.664 117.402 177.666C123.282 177.666 126.222 181.185 126.222 188.224Z" fill="#ECECEC"/>
<path d="M157.437 191.606C156.993 192.006 156.415 192.223 155.817 192.215H138.574C138.703 194.407 139.678 196.463 141.292 197.952C142.875 199.392 144.953 200.165 147.093 200.11C148.402 200.159 149.707 199.925 150.918 199.422C151.874 198.979 152.752 198.384 153.518 197.66C153.938 197.382 154.429 197.229 154.932 197.217C155.193 197.212 155.453 197.261 155.693 197.362C155.934 197.462 156.152 197.612 156.331 197.802C156.692 198.168 156.894 198.663 156.892 199.177C156.882 199.541 156.789 199.898 156.619 200.22C156.449 200.542 156.207 200.821 155.912 201.034C154.823 202.063 153.542 202.869 152.143 203.405C150.623 204.049 148.989 204.383 147.338 204.385C144.907 204.438 142.504 203.863 140.36 202.717C138.389 201.651 136.771 200.034 135.705 198.063C134.587 195.988 134.021 193.662 134.061 191.306C134.005 188.791 134.587 186.304 135.752 184.075C136.785 182.122 138.324 180.484 140.209 179.333C142.002 178.235 144.066 177.658 146.168 177.666C148.235 177.648 150.268 178.194 152.048 179.246C153.878 180.326 155.397 181.862 156.458 183.703C157.574 185.641 158.166 187.837 158.172 190.073C158.16 190.365 158.089 190.652 157.962 190.915C157.836 191.179 157.657 191.414 157.437 191.606V191.606ZM141.411 183.522C139.976 184.724 139.034 186.411 138.763 188.263H153.217V187.908C153.149 187.074 152.907 186.263 152.507 185.528C152.107 184.793 151.557 184.15 150.894 183.64C149.556 182.55 147.878 181.962 146.152 181.981C144.443 181.946 142.773 182.489 141.411 183.522V183.522Z" fill="#ECECEC"/>
<path d="M164.1 198.584C164.112 198.242 164.213 197.909 164.393 197.618C164.573 197.327 164.826 197.088 165.127 196.925C165.455 196.694 165.848 196.572 166.249 196.577C166.548 196.588 166.842 196.659 167.114 196.785C167.385 196.911 167.628 197.09 167.83 197.312C168.707 198.346 169.782 199.195 170.991 199.809C172.254 200.398 173.636 200.685 175.029 200.647C176.18 200.642 177.311 200.345 178.317 199.786C178.778 199.53 179.157 199.148 179.409 198.685C179.66 198.221 179.775 197.696 179.739 197.17C179.755 196.653 179.629 196.141 179.374 195.691C179.119 195.24 178.745 194.869 178.293 194.617C176.957 193.899 175.529 193.367 174.049 193.037C172.492 192.63 170.97 192.102 169.497 191.456C168.3 190.922 167.249 190.109 166.431 189.085C165.557 187.923 165.115 186.492 165.182 185.039C165.16 183.646 165.599 182.285 166.431 181.167C167.301 180.03 168.45 179.137 169.766 178.574C171.194 177.943 172.741 177.625 174.302 177.642C175.902 177.648 177.488 177.948 178.98 178.527C180.465 179.067 181.775 179.998 182.774 181.222C183.138 181.604 183.347 182.109 183.359 182.637C183.341 182.932 183.262 183.22 183.126 183.483C182.989 183.746 182.8 183.977 182.568 184.162C182.23 184.457 181.792 184.613 181.343 184.596C181.079 184.608 180.816 184.562 180.571 184.461C180.327 184.36 180.107 184.207 179.929 184.012C179.235 183.223 178.37 182.604 177.4 182.202C176.354 181.765 175.23 181.547 174.096 181.562C172.991 181.536 171.899 181.809 170.935 182.352C170.5 182.618 170.147 183 169.917 183.455C169.686 183.91 169.588 184.42 169.631 184.928C169.638 185.445 169.783 185.951 170.053 186.392C170.323 186.833 170.707 187.193 171.165 187.433C172.568 188.158 174.058 188.702 175.598 189.054C177.074 189.416 178.516 189.907 179.905 190.523C181.049 191.043 182.043 191.842 182.797 192.847C183.628 194.028 184.042 195.451 183.975 196.893C183.994 198.322 183.529 199.714 182.655 200.844C181.744 201.993 180.552 202.886 179.194 203.437C177.762 204.046 176.221 204.356 174.666 204.345C172.711 204.366 170.772 204.001 168.96 203.271C167.199 202.545 165.666 201.36 164.518 199.841C164.267 199.468 164.122 199.033 164.1 198.584V198.584Z" fill="#ECECEC"/>
<path d="M189.918 198.584C189.926 198.243 190.023 197.91 190.199 197.618C190.375 197.325 190.624 197.084 190.922 196.917C191.252 196.684 191.648 196.563 192.052 196.569C192.351 196.58 192.645 196.65 192.916 196.777C193.188 196.903 193.431 197.082 193.632 197.304C194.511 198.336 195.586 199.185 196.793 199.801C198.059 200.391 199.444 200.677 200.84 200.639C201.988 200.633 203.116 200.336 204.119 199.777C204.58 199.522 204.959 199.14 205.211 198.677C205.463 198.213 205.578 197.688 205.542 197.162C205.558 196.644 205.431 196.133 205.176 195.683C204.921 195.232 204.547 194.861 204.095 194.609C202.762 193.892 201.337 193.36 199.86 193.028C198.3 192.624 196.775 192.095 195.3 191.448C194.104 190.916 193.054 190.103 192.241 189.077C191.363 187.917 190.921 186.484 190.993 185.031C190.966 183.637 191.405 182.274 192.241 181.159C193.108 180.022 194.254 179.129 195.568 178.566C196.997 177.935 198.543 177.617 200.105 177.634C201.705 177.639 203.291 177.939 204.783 178.519C206.267 179.059 207.578 179.99 208.576 181.214C208.942 181.596 209.154 182.1 209.169 182.628C209.152 182.924 209.072 183.212 208.936 183.475C208.8 183.738 208.61 183.969 208.379 184.154C208.04 184.448 207.602 184.603 207.154 184.588C206.888 184.601 206.623 184.555 206.378 184.454C206.132 184.353 205.911 184.199 205.731 184.004C205.041 183.215 204.178 182.596 203.21 182.194C202.162 181.758 201.035 181.54 199.899 181.554C198.794 181.53 197.702 181.802 196.738 182.344C196.305 182.611 195.954 182.994 195.725 183.449C195.496 183.903 195.398 184.413 195.442 184.92C195.434 185.44 195.57 185.953 195.833 186.401C196.096 186.85 196.478 187.218 196.936 187.465C198.34 188.187 199.83 188.731 201.369 189.085C202.847 189.448 204.291 189.94 205.684 190.555C206.824 191.077 207.815 191.876 208.568 192.878C209.423 194.047 209.86 195.47 209.809 196.917C209.828 198.345 209.363 199.738 208.489 200.868C207.582 202.016 206.392 202.909 205.036 203.46C203.602 204.07 202.058 204.379 200.5 204.369C198.546 204.39 196.607 204.024 194.794 203.294C193.037 202.566 191.507 201.382 190.36 199.864C190.097 199.487 189.944 199.044 189.918 198.584Z" fill="#ECECEC"/>
<path d="M260.766 201.825C260.771 202.12 260.714 202.413 260.6 202.685C260.486 202.957 260.316 203.202 260.102 203.405C259.897 203.615 259.651 203.781 259.379 203.891C259.107 204.001 258.815 204.054 258.522 204.045C258.071 204.046 257.632 203.899 257.273 203.627C256.879 203.324 256.566 202.927 256.364 202.473L253.353 195.337H238.212L235.224 202.591C235.089 203.041 234.812 203.435 234.434 203.713C234.069 203.971 233.632 204.109 233.185 204.109C232.899 204.128 232.613 204.091 232.341 203.999C232.07 203.907 231.819 203.761 231.605 203.571C231.422 203.374 231.28 203.143 231.188 202.891C231.095 202.638 231.055 202.37 231.068 202.101C231.082 201.836 231.114 201.572 231.162 201.311L243.657 171.036C243.856 170.553 244.187 170.137 244.613 169.834C245.022 169.555 245.522 169.442 246.012 169.518C246.481 169.51 246.941 169.645 247.331 169.905C247.731 170.176 248.027 170.574 248.169 171.036L260.624 200.868C260.723 201.177 260.771 201.5 260.766 201.825V201.825ZM240.092 190.848H251.504L245.775 177.16L240.092 190.848Z" fill="#ECECEC"/>
<path d="M265.666 198.585C265.679 198.243 265.781 197.91 265.961 197.62C266.141 197.329 266.393 197.09 266.693 196.925C267.024 196.694 267.42 196.572 267.823 196.577C268.122 196.588 268.416 196.659 268.688 196.785C268.959 196.911 269.203 197.09 269.404 197.312C270.285 198.343 271.359 199.191 272.565 199.809C273.83 200.399 275.216 200.686 276.611 200.647C277.76 200.641 278.888 200.345 279.891 199.786C280.352 199.53 280.731 199.148 280.983 198.685C281.235 198.222 281.349 197.696 281.313 197.17C281.329 196.653 281.203 196.141 280.948 195.691C280.693 195.241 280.319 194.869 279.867 194.617C278.534 193.899 277.109 193.367 275.631 193.037C274.072 192.632 272.547 192.103 271.071 191.456C269.875 190.924 268.826 190.111 268.013 189.085C267.149 187.928 266.716 186.505 266.788 185.063C266.761 183.669 267.201 182.306 268.037 181.191C268.904 180.054 270.05 179.161 271.364 178.598C272.792 177.967 274.339 177.649 275.9 177.666C277.501 177.671 279.086 177.971 280.578 178.551C282.064 179.093 283.376 180.024 284.38 181.246C284.748 181.638 284.957 182.154 284.964 182.692C284.947 182.987 284.868 183.276 284.731 183.539C284.595 183.801 284.405 184.033 284.174 184.217C283.835 184.512 283.398 184.667 282.949 184.652C282.684 184.664 282.419 184.618 282.173 184.517C281.927 184.416 281.707 184.263 281.527 184.067C280.836 183.279 279.973 182.66 279.006 182.257C277.957 181.82 276.83 181.603 275.694 181.617C274.589 181.593 273.497 181.866 272.533 182.408C272.1 182.675 271.749 183.057 271.52 183.512C271.292 183.967 271.194 184.477 271.237 184.984C271.23 185.504 271.365 186.016 271.628 186.465C271.892 186.914 272.273 187.281 272.731 187.529C274.136 188.25 275.625 188.794 277.164 189.149C278.643 189.512 280.086 190.004 281.479 190.619C282.62 191.143 283.614 191.941 284.372 192.942C285.2 194.124 285.611 195.547 285.541 196.988C285.56 198.417 285.095 199.809 284.222 200.94C283.314 202.088 282.124 202.981 280.768 203.532C279.334 204.142 277.79 204.451 276.232 204.44C274.278 204.461 272.339 204.096 270.526 203.366C268.769 202.637 267.239 201.453 266.093 199.936C265.822 199.536 265.674 199.067 265.666 198.585V198.585Z" fill="#ECECEC"/>
<path d="M331.101 200.078C331.31 200.285 331.476 200.531 331.59 200.802C331.704 201.073 331.763 201.364 331.764 201.659C331.773 201.954 331.718 202.248 331.603 202.521C331.489 202.793 331.317 203.038 331.101 203.239C330.636 203.652 330.031 203.87 329.409 203.848H312.363C312.053 203.853 311.745 203.795 311.458 203.677C311.171 203.559 310.912 203.383 310.696 203.16C310.473 202.945 310.298 202.687 310.179 202.402C310.061 202.116 310.003 201.81 310.008 201.501V171.984C310.003 171.674 310.061 171.366 310.179 171.079C310.297 170.792 310.473 170.532 310.696 170.316C310.912 170.094 311.171 169.918 311.458 169.8C311.745 169.681 312.053 169.623 312.363 169.629H329.409C330.036 169.61 330.644 169.84 331.101 170.269C331.322 170.485 331.496 170.745 331.61 171.032C331.724 171.319 331.777 171.627 331.764 171.936C331.773 172.232 331.718 172.526 331.604 172.799C331.489 173.071 331.318 173.316 331.101 173.517C330.64 173.937 330.032 174.158 329.409 174.133H314.86V184.13H327.205C327.831 184.112 328.439 184.342 328.896 184.77C329.109 184.974 329.278 185.22 329.392 185.492C329.506 185.764 329.563 186.056 329.56 186.351C329.57 186.647 329.517 186.941 329.402 187.214C329.287 187.487 329.115 187.732 328.896 187.932C328.428 188.336 327.823 188.548 327.205 188.524H314.86V199.351H329.409C329.727 199.346 330.042 199.408 330.333 199.533C330.625 199.658 330.886 199.844 331.101 200.078V200.078Z" fill="#ECECEC"/>
<path d="M362.064 178.82C362.286 179.05 362.459 179.322 362.573 179.621C362.687 179.92 362.74 180.239 362.727 180.558V211.379C362.733 211.686 362.677 211.991 362.563 212.276C362.449 212.561 362.279 212.82 362.064 213.039C361.847 213.265 361.585 213.443 361.295 213.562C361.005 213.68 360.694 213.736 360.38 213.726C360.072 213.739 359.765 213.687 359.478 213.574C359.19 213.461 358.93 213.289 358.713 213.07C358.284 212.613 358.054 212.005 358.073 211.379V200.204C357.172 201.457 355.989 202.48 354.619 203.192C353.168 203.995 351.536 204.416 349.878 204.417C347.743 204.445 345.648 203.849 343.848 202.702C342.026 201.535 340.553 199.897 339.588 197.96C338.515 195.826 337.973 193.465 338.008 191.077C337.98 188.689 338.522 186.33 339.588 184.193C340.538 182.254 342.004 180.614 343.824 179.452C345.591 178.315 347.651 177.719 349.751 177.737C351.392 177.709 353.019 178.052 354.509 178.741C355.893 179.395 357.113 180.351 358.081 181.538V180.558C358.061 179.925 358.291 179.309 358.721 178.843C358.933 178.615 359.191 178.436 359.479 178.317C359.767 178.198 360.077 178.143 360.388 178.156C360.698 178.146 361.007 178.2 361.295 178.314C361.583 178.428 361.845 178.6 362.064 178.82V178.82ZM354.477 198.932C355.682 198.127 356.646 197.01 357.267 195.7C357.955 194.246 358.298 192.653 358.27 191.045C358.294 189.445 357.951 187.861 357.267 186.414C356.651 185.093 355.686 183.964 354.477 183.15C353.259 182.362 351.834 181.955 350.383 181.981C348.933 181.955 347.508 182.362 346.29 183.15C345.076 183.96 344.111 185.09 343.5 186.414C342.816 187.861 342.473 189.445 342.496 191.045C342.468 192.653 342.812 194.246 343.5 195.7C344.116 197.013 345.081 198.131 346.29 198.932C347.507 199.722 348.932 200.132 350.383 200.11C351.845 200.139 353.282 199.728 354.509 198.932H354.477Z" fill="#ECECEC"/>
<path d="M392.884 178.938C393.101 179.158 393.271 179.418 393.385 179.705C393.499 179.991 393.555 180.297 393.548 180.605V193.637C393.548 197.035 392.61 199.67 390.735 201.54C388.859 203.41 386.204 204.351 382.769 204.361C379.371 204.361 376.736 203.421 374.866 201.54C372.996 199.659 372.066 197.025 372.076 193.637V180.605C372.069 180.298 372.123 179.992 372.235 179.705C372.348 179.419 372.517 179.158 372.732 178.938C372.943 178.715 373.198 178.538 373.481 178.419C373.764 178.301 374.069 178.243 374.376 178.25C374.69 178.24 375.003 178.296 375.295 178.415C375.586 178.533 375.849 178.711 376.067 178.938C376.284 179.158 376.454 179.418 376.568 179.705C376.682 179.991 376.737 180.297 376.731 180.605V193.637C376.731 197.92 378.738 200.059 382.753 200.054C383.581 200.115 384.412 200.006 385.196 199.735C385.98 199.463 386.701 199.034 387.313 198.474C388.356 197.391 388.894 195.795 388.894 193.669V180.605C388.887 180.297 388.943 179.991 389.057 179.705C389.171 179.418 389.341 179.158 389.557 178.938C389.768 178.715 390.023 178.538 390.306 178.419C390.589 178.301 390.894 178.243 391.201 178.25C391.514 178.24 391.826 178.296 392.116 178.415C392.406 178.533 392.668 178.712 392.884 178.938V178.938Z" fill="#ECECEC"/>
<path d="M425.468 178.574C425.69 178.804 425.863 179.077 425.977 179.376C426.091 179.675 426.144 179.993 426.131 180.313V201.579C426.138 201.886 426.082 202.191 425.968 202.477C425.854 202.762 425.684 203.021 425.468 203.239C425.25 203.466 424.986 203.644 424.695 203.762C424.404 203.881 424.091 203.937 423.776 203.926C423.469 203.939 423.162 203.886 422.876 203.772C422.59 203.657 422.331 203.484 422.117 203.263C421.903 203.039 421.736 202.775 421.626 202.486C421.516 202.197 421.466 201.888 421.477 201.579V200.299C420.545 201.514 419.358 202.509 417.999 203.215C416.547 204.013 414.915 204.426 413.258 204.416C411.119 204.441 409.019 203.845 407.212 202.702C405.378 201.547 403.901 199.905 402.945 197.96C401.895 195.819 401.367 193.46 401.404 191.077C401.366 188.693 401.894 186.333 402.945 184.193C403.898 182.254 405.366 180.613 407.188 179.452C408.955 178.315 411.015 177.719 413.116 177.737C414.783 177.725 416.431 178.093 417.936 178.811C419.316 179.445 420.532 180.386 421.492 181.562V180.321C421.473 179.687 421.703 179.072 422.133 178.606C422.343 178.378 422.601 178.199 422.887 178.081C423.174 177.962 423.482 177.907 423.792 177.918C424.101 177.909 424.409 177.962 424.697 178.075C424.985 178.187 425.247 178.357 425.468 178.574V178.574ZM417.873 198.932C419.082 198.129 420.049 197.011 420.671 195.7C421.358 194.245 421.704 192.653 421.682 191.045C421.704 189.453 421.36 187.877 420.678 186.438C420.054 185.12 419.088 183.993 417.881 183.174C416.667 182.368 415.236 181.952 413.779 181.98C412.329 181.954 410.903 182.361 409.686 183.15C408.476 183.956 407.509 185.076 406.888 186.39C406.203 187.845 405.86 189.437 405.885 191.045C405.861 192.653 406.204 194.245 406.888 195.7C407.51 197.011 408.477 198.129 409.686 198.932C410.906 199.712 412.331 200.111 413.779 200.078C415.228 200.112 416.653 199.713 417.873 198.932V198.932Z" fill="#ECECEC"/>
<path d="M439.859 203.239C439.642 203.462 439.383 203.638 439.096 203.756C438.809 203.874 438.501 203.932 438.191 203.927C437.885 203.935 437.581 203.878 437.299 203.759C437.017 203.641 436.763 203.463 436.555 203.239C436.339 203.021 436.169 202.762 436.055 202.477C435.941 202.192 435.885 201.887 435.891 201.58V170.048C435.886 169.738 435.944 169.43 436.062 169.143C436.18 168.856 436.356 168.596 436.579 168.38C436.793 168.158 437.052 167.982 437.337 167.864C437.623 167.746 437.929 167.687 438.238 167.693C438.545 167.686 438.85 167.743 439.133 167.862C439.417 167.98 439.672 168.157 439.882 168.38C440.099 168.6 440.269 168.86 440.383 169.147C440.497 169.433 440.552 169.74 440.546 170.048V201.58C440.551 201.889 440.493 202.196 440.375 202.481C440.257 202.767 440.081 203.025 439.859 203.239V203.239Z" fill="#ECECEC"/>
<path d="M448.425 198.585C448.437 198.242 448.538 197.909 448.719 197.618C448.899 197.327 449.152 197.088 449.452 196.925C449.783 196.693 450.179 196.571 450.583 196.577C450.882 196.588 451.176 196.659 451.447 196.785C451.719 196.911 451.962 197.09 452.163 197.312C453.042 198.344 454.117 199.193 455.324 199.809C456.59 200.399 457.975 200.686 459.37 200.647C460.519 200.641 461.647 200.345 462.65 199.786C463.111 199.53 463.49 199.148 463.742 198.685C463.994 198.222 464.109 197.696 464.073 197.17C464.089 196.653 463.962 196.141 463.707 195.691C463.452 195.241 463.078 194.869 462.626 194.617C461.293 193.9 459.868 193.368 458.39 193.037C456.831 192.632 455.306 192.103 453.831 191.456C452.635 190.924 451.585 190.111 450.772 189.085C449.911 187.927 449.481 186.504 449.555 185.063C449.529 183.669 449.968 182.306 450.804 181.191C451.671 180.054 452.817 179.161 454.131 178.598C455.559 177.967 457.106 177.649 458.667 177.666C460.268 177.671 461.854 177.971 463.345 178.551C464.83 179.091 466.14 180.022 467.139 181.246C467.505 181.628 467.716 182.132 467.732 182.66C467.714 182.956 467.635 183.244 467.499 183.507C467.362 183.77 467.173 184.001 466.941 184.186C466.602 184.48 466.165 184.635 465.716 184.62C465.451 184.633 465.186 184.587 464.94 184.486C464.694 184.385 464.474 184.231 464.294 184.036C463.602 183.245 462.736 182.626 461.765 182.226C460.719 181.789 459.595 181.571 458.462 181.586C457.356 181.562 456.265 181.834 455.3 182.376C454.867 182.643 454.517 183.026 454.288 183.481C454.059 183.935 453.961 184.445 454.004 184.952C454.009 185.463 454.151 185.962 454.415 186.399C454.679 186.835 455.056 187.193 455.506 187.434C456.911 188.155 458.4 188.7 459.939 189.054C461.42 189.44 462.864 189.956 464.254 190.595C465.394 191.117 466.386 191.915 467.139 192.918C467.96 194.085 468.371 195.491 468.308 196.917C468.328 198.345 467.862 199.738 466.989 200.868C466.096 202.03 464.917 202.939 463.567 203.508C462.133 204.118 460.589 204.427 459.031 204.417C457.066 204.442 455.116 204.076 453.293 203.342C451.536 202.614 450.006 201.43 448.86 199.912C448.591 199.52 448.44 199.06 448.425 198.585V198.585Z" fill="#ECECEC"/>
</g>
<defs>
<clipPath id="clip0_31_5">
<rect width="143.108" height="117.431" fill="white" transform="translate(162.706 0.123535)"/>
</clipPath>
<clipPath id="clip1_31_5">
<rect width="468.112" height="46.0573" fill="white" transform="translate(0.204102 167.669)"/>
</clipPath>
</defs>
</svg>
