<svg width="67" height="68" viewBox="0 0 67 68" fill="none" xmlns="http://www.w3.org/2000/svg">
<path d="M18.3929 20.8136C18.0244 19.9363 18.4807 19.7315 19.3083 19.6438C19.9852 19.5989 20.6648 19.6185 21.338 19.7023C22.6775 19.8222 24.0053 20.0357 25.3272 20.2872C27.5938 20.7113 29.8399 21.2523 32.1328 21.5419C37.0052 22.1619 41.3336 20.9248 45.1122 17.7545C45.5275 17.4065 46.4078 16.5496 46.0803 15.912C45.7527 15.2744 44.9367 15.5903 44.5156 15.9442C42.1934 17.892 39.6344 19.0735 36.5723 19.1378C33.832 19.1963 31.1413 18.5529 28.4741 18.0031C25.8068 17.4533 22.7623 16.687 20.06 17.1257C17.691 17.5118 14.7547 20.0503 15.8602 22.6825C16.3749 23.9137 18.8404 21.8782 18.3929 20.8107V20.8136Z" fill="#FCFCFC"/>
<path d="M36.5723 19.17C34.8761 19.208 33.133 19.015 31.4835 19.4917C29.7696 20.036 28.2347 21.0334 27.041 22.3783C25.8279 23.7032 24.9224 25.2796 24.389 26.995C23.8557 28.7104 23.7076 30.5223 23.9555 32.3015C24.8622 38.4432 31.2495 40.6045 36.6074 38.7357C37.9791 38.256 39.1694 37.4722 40.4094 36.7323C41.784 35.9134 43.1498 34.9775 43.9892 33.5649C44.5741 32.5881 45.0274 31.0439 44.0915 30.1227C43.2668 29.3126 41.8074 29.3857 40.7721 29.6255C38.0112 30.2689 35.3264 33.331 36.1336 36.2761C36.9642 39.2884 39.1635 41.555 40.2018 44.427C41.3336 47.5592 42.0443 52.9844 37.6106 53.4933C36.7968 53.5835 35.9732 53.4881 35.2017 53.214C34.4301 52.9399 33.7308 52.4944 33.1564 51.9111C32.4736 51.2571 31.9296 50.4723 31.5566 49.6035C31.5157 49.5041 31.2817 48.6794 31.3548 48.7028L30.8576 49.3198L31.1501 49.1912C31.5244 49.1765 31.9865 48.9543 32.3697 48.8987C33.0803 48.7876 33.7647 48.1091 34.1069 47.5095C34.3116 47.1527 34.5807 46.3221 33.8524 46.4362C31.5361 46.7959 28.0032 48.6881 29.097 51.5513C30.0036 53.9407 32.2702 55.8271 34.841 55.9909C37.3152 56.1488 39.6636 54.941 41.3014 53.1423C43.5797 50.6388 43.8488 47.3779 43.1381 44.1608C42.5678 41.5813 41.0265 39.6832 39.8596 37.3845C39.2747 36.2293 37.982 34.0972 38.564 32.7636C38.9939 31.778 40.9037 31.6289 41.7255 32.322C43.6704 33.9919 38.2364 36.2556 37.0139 36.6007C34.5368 37.2968 31.6444 37.0569 29.5006 35.5566C26.7866 33.6527 25.9355 30.2426 26.4795 27.0899C26.8041 25.2035 27.6493 23.1826 29.4041 22.2438C31.1121 21.3371 33.2412 21.6822 35.1012 21.6413C35.9786 21.6237 37.8972 19.1495 36.5811 19.1788L36.5723 19.17Z" fill="#FCFCFC"/>
<path d="M33.4985 6.88075C48.5574 6.88075 60.8086 19.053 60.8086 34.0124C60.8086 48.9718 48.5574 61.1411 33.4985 61.1411C18.4397 61.1411 6.18849 48.9718 6.18849 34.0124C6.18849 19.053 18.4397 6.88075 33.4985 6.88075ZM33.4985 4.2486C16.9628 4.2486 3.55634 17.5731 3.55634 34.0124C3.55634 50.4517 16.9628 63.7733 33.4985 63.7733C50.0343 63.7733 63.4407 50.4487 63.4407 34.0124C63.4407 17.5761 50.0343 4.2486 33.4985 4.2486Z" fill="#FCFCFC"/>
</svg>
